<svg width="1440" height="666" viewBox="0 0 1440 666" fill="none" xmlns="http://www.w3.org/2000/svg">
<g opacity="0.5">
<rect width="64" height="64" transform="matrix(1 0 0 -1 -48 65)" stroke="#BDE4B6"/>
<line x1="15.6464" y1="65.3536" x2="-48.3535" y2="1.35356" stroke="#BDE4B6"/>
<line y1="-0.5" x2="90.5097" y2="-0.5" transform="matrix(0.707107 -0.707107 -0.707107 -0.707107 -48 65)" stroke="#BDE4B6"/>
<rect width="64" height="64" transform="matrix(1 0 0 -1 16 65)" stroke="#BDE4B6"/>
<line x1="79.6464" y1="65.3536" x2="15.6464" y2="1.35356" stroke="#BDE4B6"/>
<line y1="-0.5" x2="90.5097" y2="-0.5" transform="matrix(0.707107 -0.707107 -0.707107 -0.707107 16 65)" stroke="#BDE4B6"/>
<rect width="64" height="64" transform="matrix(1 0 0 -1 80 65)" stroke="#BDE4B6"/>
<line x1="143.646" y1="65.3536" x2="79.6464" y2="1.35356" stroke="#BDE4B6"/>
<line y1="-0.5" x2="90.5097" y2="-0.5" transform="matrix(0.707107 -0.707107 -0.707107 -0.707107 80 65)" stroke="#BDE4B6"/>
<rect width="64" height="64" transform="matrix(1 0 0 -1 144 65)" stroke="#BDE4B6"/>
<line x1="207.646" y1="65.3536" x2="143.646" y2="1.35356" stroke="#BDE4B6"/>
<line y1="-0.5" x2="90.5097" y2="-0.5" transform="matrix(0.707107 -0.707107 -0.707107 -0.707107 144 65)" stroke="#BDE4B6"/>
<rect width="64" height="64" transform="matrix(1 0 0 -1 208 65)" stroke="#BDE4B6"/>
<line x1="271.646" y1="65.3536" x2="207.646" y2="1.35356" stroke="#BDE4B6"/>
<line y1="-0.5" x2="90.5097" y2="-0.5" transform="matrix(0.707107 -0.707107 -0.707107 -0.707107 208 65)" stroke="#BDE4B6"/>
<rect width="64" height="64" transform="matrix(1 0 0 -1 272 65)" stroke="#BDE4B6"/>
<line x1="335.646" y1="65.3536" x2="271.646" y2="1.35356" stroke="#BDE4B6"/>
<line y1="-0.5" x2="90.5097" y2="-0.5" transform="matrix(0.707107 -0.707107 -0.707107 -0.707107 272 65)" stroke="#BDE4B6"/>
<rect width="64" height="64" transform="matrix(1 0 0 -1 336 65)" stroke="#BDE4B6"/>
<line x1="399.646" y1="65.3536" x2="335.646" y2="1.35356" stroke="#BDE4B6"/>
<line y1="-0.5" x2="90.5097" y2="-0.5" transform="matrix(0.707107 -0.707107 -0.707107 -0.707107 336 65)" stroke="#BDE4B6"/>
<rect width="64" height="64" transform="matrix(1 0 0 -1 400 65)" stroke="#BDE4B6"/>
<line x1="463.646" y1="65.3536" x2="399.646" y2="1.35356" stroke="#BDE4B6"/>
<line y1="-0.5" x2="90.5097" y2="-0.5" transform="matrix(0.707107 -0.707107 -0.707107 -0.707107 400 65)" stroke="#BDE4B6"/>
<rect width="64" height="64" transform="matrix(1 0 0 -1 464 65)" stroke="#BDE4B6"/>
<line x1="527.646" y1="65.3536" x2="463.646" y2="1.35356" stroke="#BDE4B6"/>
<line y1="-0.5" x2="90.5097" y2="-0.5" transform="matrix(0.707107 -0.707107 -0.707107 -0.707107 464 65)" stroke="#BDE4B6"/>
<rect width="64" height="64" transform="matrix(1 0 0 -1 528 65)" stroke="#BDE4B6"/>
<line x1="591.646" y1="65.3536" x2="527.646" y2="1.35356" stroke="#BDE4B6"/>
<line y1="-0.5" x2="90.5097" y2="-0.5" transform="matrix(0.707107 -0.707107 -0.707107 -0.707107 528 65)" stroke="#BDE4B6"/>
<rect width="64" height="64" transform="matrix(1 0 0 -1 592 65)" stroke="#BDE4B6"/>
<line x1="655.646" y1="65.3536" x2="591.646" y2="1.35356" stroke="#BDE4B6"/>
<line y1="-0.5" x2="90.5097" y2="-0.5" transform="matrix(0.707107 -0.707107 -0.707107 -0.707107 592 65)" stroke="#BDE4B6"/>
<rect width="64" height="64" transform="matrix(1 0 0 -1 656 65)" stroke="#BDE4B6"/>
<line x1="719.646" y1="65.3536" x2="655.646" y2="1.35356" stroke="#BDE4B6"/>
<line y1="-0.5" x2="90.5097" y2="-0.5" transform="matrix(0.707107 -0.707107 -0.707107 -0.707107 656 65)" stroke="#BDE4B6"/>
<rect width="64" height="64" transform="matrix(1 0 0 -1 720 65)" stroke="#BDE4B6"/>
<line x1="783.646" y1="65.3536" x2="719.646" y2="1.35356" stroke="#BDE4B6"/>
<line y1="-0.5" x2="90.5097" y2="-0.5" transform="matrix(0.707107 -0.707107 -0.707107 -0.707107 720 65)" stroke="#BDE4B6"/>
<rect width="64" height="64" transform="matrix(1 0 0 -1 784 65)" stroke="#BDE4B6"/>
<line x1="847.646" y1="65.3536" x2="783.646" y2="1.35356" stroke="#BDE4B6"/>
<line y1="-0.5" x2="90.5097" y2="-0.5" transform="matrix(0.707107 -0.707107 -0.707107 -0.707107 784 65)" stroke="#BDE4B6"/>
<rect width="64" height="64" transform="matrix(1 0 0 -1 848 65)" stroke="#BDE4B6"/>
<line x1="911.646" y1="65.3536" x2="847.646" y2="1.35356" stroke="#BDE4B6"/>
<line y1="-0.5" x2="90.5097" y2="-0.5" transform="matrix(0.707107 -0.707107 -0.707107 -0.707107 848 65)" stroke="#BDE4B6"/>
<rect width="64" height="64" transform="matrix(1 0 0 -1 912 65)" stroke="#BDE4B6"/>
<line x1="975.646" y1="65.3536" x2="911.646" y2="1.35356" stroke="#BDE4B6"/>
<line y1="-0.5" x2="90.5097" y2="-0.5" transform="matrix(0.707107 -0.707107 -0.707107 -0.707107 912 65)" stroke="#BDE4B6"/>
<rect width="64" height="64" transform="matrix(1 0 0 -1 976 65)" stroke="#BDE4B6"/>
<line x1="1039.65" y1="65.3536" x2="975.646" y2="1.35356" stroke="#BDE4B6"/>
<line y1="-0.5" x2="90.5097" y2="-0.5" transform="matrix(0.707107 -0.707107 -0.707107 -0.707107 976 65)" stroke="#BDE4B6"/>
<rect width="64" height="64" transform="matrix(1 0 0 -1 1040 65)" stroke="#BDE4B6"/>
<line x1="1103.65" y1="65.3536" x2="1039.65" y2="1.35356" stroke="#BDE4B6"/>
<line y1="-0.5" x2="90.5097" y2="-0.5" transform="matrix(0.707107 -0.707107 -0.707107 -0.707107 1040 65)" stroke="#BDE4B6"/>
<rect width="64" height="64" transform="matrix(1 0 0 -1 1104 65)" stroke="#BDE4B6"/>
<line x1="1167.65" y1="65.3536" x2="1103.65" y2="1.35356" stroke="#BDE4B6"/>
<line y1="-0.5" x2="90.5097" y2="-0.5" transform="matrix(0.707107 -0.707107 -0.707107 -0.707107 1104 65)" stroke="#BDE4B6"/>
<rect width="64" height="64" transform="matrix(1 0 0 -1 1168 65)" stroke="#BDE4B6"/>
<line x1="1231.65" y1="65.3536" x2="1167.65" y2="1.35356" stroke="#BDE4B6"/>
<line y1="-0.5" x2="90.5097" y2="-0.5" transform="matrix(0.707107 -0.707107 -0.707107 -0.707107 1168 65)" stroke="#BDE4B6"/>
<rect width="64" height="64" transform="matrix(1 0 0 -1 1232 65)" stroke="#BDE4B6"/>
<line x1="1295.65" y1="65.3536" x2="1231.65" y2="1.35356" stroke="#BDE4B6"/>
<line y1="-0.5" x2="90.5097" y2="-0.5" transform="matrix(0.707107 -0.707107 -0.707107 -0.707107 1232 65)" stroke="#BDE4B6"/>
<rect width="64" height="64" transform="matrix(1 0 0 -1 1296 65)" stroke="#BDE4B6"/>
<line x1="1359.65" y1="65.3536" x2="1295.65" y2="1.35356" stroke="#BDE4B6"/>
<line y1="-0.5" x2="90.5097" y2="-0.5" transform="matrix(0.707107 -0.707107 -0.707107 -0.707107 1296 65)" stroke="#BDE4B6"/>
<rect width="64" height="64" transform="matrix(1 0 0 -1 1360 65)" stroke="#BDE4B6"/>
<line x1="1423.65" y1="65.3536" x2="1359.65" y2="1.35356" stroke="#BDE4B6"/>
<line y1="-0.5" x2="90.5097" y2="-0.5" transform="matrix(0.707107 -0.707107 -0.707107 -0.707107 1360 65)" stroke="#BDE4B6"/>
<rect width="64" height="64" transform="matrix(1 0 0 -1 1424 65)" stroke="#BDE4B6"/>
<line x1="1487.65" y1="65.3536" x2="1423.65" y2="1.35356" stroke="#BDE4B6"/>
<line y1="-0.5" x2="90.5097" y2="-0.5" transform="matrix(0.707107 -0.707107 -0.707107 -0.707107 1424 65)" stroke="#BDE4B6"/>
</g>
<g opacity="0.5">
<rect width="64" height="64" transform="matrix(1 0 0 -1 -48 129)" stroke="#8ED1BB"/>
<line x1="15.6464" y1="129.354" x2="-48.3535" y2="65.3536" stroke="#8ED1BB"/>
<line y1="-0.5" x2="90.5097" y2="-0.5" transform="matrix(0.707107 -0.707107 -0.707107 -0.707107 -48 129)" stroke="#8ED1BB"/>
<rect width="64" height="64" transform="matrix(1 0 0 -1 16 129)" stroke="#8ED1BB"/>
<line x1="79.6464" y1="129.354" x2="15.6464" y2="65.3536" stroke="#8ED1BB"/>
<line y1="-0.5" x2="90.5097" y2="-0.5" transform="matrix(0.707107 -0.707107 -0.707107 -0.707107 16 129)" stroke="#8ED1BB"/>
<rect width="64" height="64" transform="matrix(1 0 0 -1 80 129)" stroke="#8ED1BB"/>
<line x1="143.646" y1="129.354" x2="79.6464" y2="65.3536" stroke="#8ED1BB"/>
<line y1="-0.5" x2="90.5097" y2="-0.5" transform="matrix(0.707107 -0.707107 -0.707107 -0.707107 80 129)" stroke="#8ED1BB"/>
<rect width="64" height="64" transform="matrix(1 0 0 -1 144 129)" stroke="#8ED1BB"/>
<line x1="207.646" y1="129.354" x2="143.646" y2="65.3536" stroke="#8ED1BB"/>
<line y1="-0.5" x2="90.5097" y2="-0.5" transform="matrix(0.707107 -0.707107 -0.707107 -0.707107 144 129)" stroke="#8ED1BB"/>
<rect width="64" height="64" transform="matrix(1 0 0 -1 208 129)" stroke="#8ED1BB"/>
<line x1="271.646" y1="129.354" x2="207.646" y2="65.3536" stroke="#8ED1BB"/>
<line y1="-0.5" x2="90.5097" y2="-0.5" transform="matrix(0.707107 -0.707107 -0.707107 -0.707107 208 129)" stroke="#8ED1BB"/>
<rect width="64" height="64" transform="matrix(1 0 0 -1 272 129)" stroke="#8ED1BB"/>
<line x1="335.646" y1="129.354" x2="271.646" y2="65.3536" stroke="#8ED1BB"/>
<line y1="-0.5" x2="90.5097" y2="-0.5" transform="matrix(0.707107 -0.707107 -0.707107 -0.707107 272 129)" stroke="#8ED1BB"/>
<rect width="64" height="64" transform="matrix(1 0 0 -1 336 129)" stroke="#8ED1BB"/>
<line x1="399.646" y1="129.354" x2="335.646" y2="65.3536" stroke="#8ED1BB"/>
<line y1="-0.5" x2="90.5097" y2="-0.5" transform="matrix(0.707107 -0.707107 -0.707107 -0.707107 336 129)" stroke="#8ED1BB"/>
<rect width="64" height="64" transform="matrix(1 0 0 -1 400 129)" stroke="#8ED1BB"/>
<line x1="463.646" y1="129.354" x2="399.646" y2="65.3536" stroke="#8ED1BB"/>
<line y1="-0.5" x2="90.5097" y2="-0.5" transform="matrix(0.707107 -0.707107 -0.707107 -0.707107 400 129)" stroke="#8ED1BB"/>
<rect width="64" height="64" transform="matrix(1 0 0 -1 464 129)" stroke="#8ED1BB"/>
<line x1="527.646" y1="129.354" x2="463.646" y2="65.3536" stroke="#8ED1BB"/>
<line y1="-0.5" x2="90.5097" y2="-0.5" transform="matrix(0.707107 -0.707107 -0.707107 -0.707107 464 129)" stroke="#8ED1BB"/>
<rect width="64" height="64" transform="matrix(1 0 0 -1 528 129)" stroke="#8ED1BB"/>
<line x1="591.646" y1="129.354" x2="527.646" y2="65.3536" stroke="#8ED1BB"/>
<line y1="-0.5" x2="90.5097" y2="-0.5" transform="matrix(0.707107 -0.707107 -0.707107 -0.707107 528 129)" stroke="#8ED1BB"/>
<rect width="64" height="64" transform="matrix(1 0 0 -1 592 129)" stroke="#8ED1BB"/>
<line x1="655.646" y1="129.354" x2="591.646" y2="65.3536" stroke="#8ED1BB"/>
<line y1="-0.5" x2="90.5097" y2="-0.5" transform="matrix(0.707107 -0.707107 -0.707107 -0.707107 592 129)" stroke="#8ED1BB"/>
<rect width="64" height="64" transform="matrix(1 0 0 -1 656 129)" stroke="#8ED1BB"/>
<line x1="719.646" y1="129.354" x2="655.646" y2="65.3536" stroke="#8ED1BB"/>
<line y1="-0.5" x2="90.5097" y2="-0.5" transform="matrix(0.707107 -0.707107 -0.707107 -0.707107 656 129)" stroke="#8ED1BB"/>
<rect width="64" height="64" transform="matrix(1 0 0 -1 720 129)" stroke="#8ED1BB"/>
<line x1="783.646" y1="129.354" x2="719.646" y2="65.3536" stroke="#8ED1BB"/>
<line y1="-0.5" x2="90.5097" y2="-0.5" transform="matrix(0.707107 -0.707107 -0.707107 -0.707107 720 129)" stroke="#8ED1BB"/>
<rect width="64" height="64" transform="matrix(1 0 0 -1 784 129)" stroke="#8ED1BB"/>
<line x1="847.646" y1="129.354" x2="783.646" y2="65.3536" stroke="#8ED1BB"/>
<line y1="-0.5" x2="90.5097" y2="-0.5" transform="matrix(0.707107 -0.707107 -0.707107 -0.707107 784 129)" stroke="#8ED1BB"/>
<rect width="64" height="64" transform="matrix(1 0 0 -1 848 129)" stroke="#8ED1BB"/>
<line x1="911.646" y1="129.354" x2="847.646" y2="65.3536" stroke="#8ED1BB"/>
<line y1="-0.5" x2="90.5097" y2="-0.5" transform="matrix(0.707107 -0.707107 -0.707107 -0.707107 848 129)" stroke="#8ED1BB"/>
<rect width="64" height="64" transform="matrix(1 0 0 -1 912 129)" stroke="#8ED1BB"/>
<line x1="975.646" y1="129.354" x2="911.646" y2="65.3536" stroke="#8ED1BB"/>
<line y1="-0.5" x2="90.5097" y2="-0.5" transform="matrix(0.707107 -0.707107 -0.707107 -0.707107 912 129)" stroke="#8ED1BB"/>
<rect width="64" height="64" transform="matrix(1 0 0 -1 976 129)" stroke="#8ED1BB"/>
<line x1="1039.65" y1="129.354" x2="975.646" y2="65.3536" stroke="#8ED1BB"/>
<line y1="-0.5" x2="90.5097" y2="-0.5" transform="matrix(0.707107 -0.707107 -0.707107 -0.707107 976 129)" stroke="#8ED1BB"/>
<rect width="64" height="64" transform="matrix(1 0 0 -1 1040 129)" stroke="#8ED1BB"/>
<line x1="1103.65" y1="129.354" x2="1039.65" y2="65.3536" stroke="#8ED1BB"/>
<line y1="-0.5" x2="90.5097" y2="-0.5" transform="matrix(0.707107 -0.707107 -0.707107 -0.707107 1040 129)" stroke="#8ED1BB"/>
<rect width="64" height="64" transform="matrix(1 0 0 -1 1104 129)" stroke="#8ED1BB"/>
<line x1="1167.65" y1="129.354" x2="1103.65" y2="65.3536" stroke="#8ED1BB"/>
<line y1="-0.5" x2="90.5097" y2="-0.5" transform="matrix(0.707107 -0.707107 -0.707107 -0.707107 1104 129)" stroke="#8ED1BB"/>
<rect width="64" height="64" transform="matrix(1 0 0 -1 1168 129)" stroke="#8ED1BB"/>
<line x1="1231.65" y1="129.354" x2="1167.65" y2="65.3536" stroke="#8ED1BB"/>
<line y1="-0.5" x2="90.5097" y2="-0.5" transform="matrix(0.707107 -0.707107 -0.707107 -0.707107 1168 129)" stroke="#8ED1BB"/>
<rect width="64" height="64" transform="matrix(1 0 0 -1 1232 129)" stroke="#8ED1BB"/>
<line x1="1295.65" y1="129.354" x2="1231.65" y2="65.3536" stroke="#8ED1BB"/>
<line y1="-0.5" x2="90.5097" y2="-0.5" transform="matrix(0.707107 -0.707107 -0.707107 -0.707107 1232 129)" stroke="#8ED1BB"/>
<rect width="64" height="64" transform="matrix(1 0 0 -1 1296 129)" stroke="#8ED1BB"/>
<line x1="1359.65" y1="129.354" x2="1295.65" y2="65.3536" stroke="#8ED1BB"/>
<line y1="-0.5" x2="90.5097" y2="-0.5" transform="matrix(0.707107 -0.707107 -0.707107 -0.707107 1296 129)" stroke="#8ED1BB"/>
<rect width="64" height="64" transform="matrix(1 0 0 -1 1360 129)" stroke="#8ED1BB"/>
<line x1="1423.65" y1="129.354" x2="1359.65" y2="65.3536" stroke="#8ED1BB"/>
<line y1="-0.5" x2="90.5097" y2="-0.5" transform="matrix(0.707107 -0.707107 -0.707107 -0.707107 1360 129)" stroke="#8ED1BB"/>
<rect width="64" height="64" transform="matrix(1 0 0 -1 1424 129)" stroke="#8ED1BB"/>
<line x1="1487.65" y1="129.354" x2="1423.65" y2="65.3536" stroke="#8ED1BB"/>
<line y1="-0.5" x2="90.5097" y2="-0.5" transform="matrix(0.707107 -0.707107 -0.707107 -0.707107 1424 129)" stroke="#8ED1BB"/>
</g>
<g opacity="0.5">
<rect width="64" height="64" transform="matrix(1 0 0 -1 -48 193)" stroke="#84CCBD"/>
<line x1="15.6464" y1="193.354" x2="-48.3535" y2="129.354" stroke="#84CCBD"/>
<line y1="-0.5" x2="90.5097" y2="-0.5" transform="matrix(0.707107 -0.707107 -0.707107 -0.707107 -48 193)" stroke="#84CCBD"/>
<rect width="64" height="64" transform="matrix(1 0 0 -1 16 193)" stroke="#84CCBD"/>
<line x1="79.6464" y1="193.354" x2="15.6464" y2="129.354" stroke="#84CCBD"/>
<line y1="-0.5" x2="90.5097" y2="-0.5" transform="matrix(0.707107 -0.707107 -0.707107 -0.707107 16 193)" stroke="#84CCBD"/>
<rect width="64" height="64" transform="matrix(1 0 0 -1 80 193)" stroke="#84CCBD"/>
<line x1="143.646" y1="193.354" x2="79.6464" y2="129.354" stroke="#84CCBD"/>
<line y1="-0.5" x2="90.5097" y2="-0.5" transform="matrix(0.707107 -0.707107 -0.707107 -0.707107 80 193)" stroke="#84CCBD"/>
<rect width="64" height="64" transform="matrix(1 0 0 -1 144 193)" stroke="#84CCBD"/>
<line x1="207.646" y1="193.354" x2="143.646" y2="129.354" stroke="#84CCBD"/>
<line y1="-0.5" x2="90.5097" y2="-0.5" transform="matrix(0.707107 -0.707107 -0.707107 -0.707107 144 193)" stroke="#84CCBD"/>
<rect width="64" height="64" transform="matrix(1 0 0 -1 208 193)" stroke="#84CCBD"/>
<line x1="271.646" y1="193.354" x2="207.646" y2="129.354" stroke="#84CCBD"/>
<line y1="-0.5" x2="90.5097" y2="-0.5" transform="matrix(0.707107 -0.707107 -0.707107 -0.707107 208 193)" stroke="#84CCBD"/>
<rect width="64" height="64" transform="matrix(1 0 0 -1 272 193)" stroke="#84CCBD"/>
<line x1="335.646" y1="193.354" x2="271.646" y2="129.354" stroke="#84CCBD"/>
<line y1="-0.5" x2="90.5097" y2="-0.5" transform="matrix(0.707107 -0.707107 -0.707107 -0.707107 272 193)" stroke="#84CCBD"/>
<rect width="64" height="64" transform="matrix(1 0 0 -1 336 193)" stroke="#84CCBD"/>
<line x1="399.646" y1="193.354" x2="335.646" y2="129.354" stroke="#84CCBD"/>
<line y1="-0.5" x2="90.5097" y2="-0.5" transform="matrix(0.707107 -0.707107 -0.707107 -0.707107 336 193)" stroke="#84CCBD"/>
<rect width="64" height="64" transform="matrix(1 0 0 -1 400 193)" stroke="#84CCBD"/>
<line x1="463.646" y1="193.354" x2="399.646" y2="129.354" stroke="#84CCBD"/>
<line y1="-0.5" x2="90.5097" y2="-0.5" transform="matrix(0.707107 -0.707107 -0.707107 -0.707107 400 193)" stroke="#84CCBD"/>
<rect width="64" height="64" transform="matrix(1 0 0 -1 464 193)" stroke="#84CCBD"/>
<line x1="527.646" y1="193.354" x2="463.646" y2="129.354" stroke="#84CCBD"/>
<line y1="-0.5" x2="90.5097" y2="-0.5" transform="matrix(0.707107 -0.707107 -0.707107 -0.707107 464 193)" stroke="#84CCBD"/>
<rect width="64" height="64" transform="matrix(1 0 0 -1 528 193)" stroke="#84CCBD"/>
<line x1="591.646" y1="193.354" x2="527.646" y2="129.354" stroke="#84CCBD"/>
<line y1="-0.5" x2="90.5097" y2="-0.5" transform="matrix(0.707107 -0.707107 -0.707107 -0.707107 528 193)" stroke="#84CCBD"/>
<rect width="64" height="64" transform="matrix(1 0 0 -1 592 193)" stroke="#84CCBD"/>
<line x1="655.646" y1="193.354" x2="591.646" y2="129.354" stroke="#84CCBD"/>
<line y1="-0.5" x2="90.5097" y2="-0.5" transform="matrix(0.707107 -0.707107 -0.707107 -0.707107 592 193)" stroke="#84CCBD"/>
<rect width="64" height="64" transform="matrix(1 0 0 -1 656 193)" stroke="#84CCBD"/>
<line x1="719.646" y1="193.354" x2="655.646" y2="129.354" stroke="#84CCBD"/>
<line y1="-0.5" x2="90.5097" y2="-0.5" transform="matrix(0.707107 -0.707107 -0.707107 -0.707107 656 193)" stroke="#84CCBD"/>
<rect width="64" height="64" transform="matrix(1 0 0 -1 720 193)" stroke="#84CCBD"/>
<line x1="783.646" y1="193.354" x2="719.646" y2="129.354" stroke="#84CCBD"/>
<line y1="-0.5" x2="90.5097" y2="-0.5" transform="matrix(0.707107 -0.707107 -0.707107 -0.707107 720 193)" stroke="#84CCBD"/>
<rect width="64" height="64" transform="matrix(1 0 0 -1 784 193)" stroke="#84CCBD"/>
<line x1="847.646" y1="193.354" x2="783.646" y2="129.354" stroke="#84CCBD"/>
<line y1="-0.5" x2="90.5097" y2="-0.5" transform="matrix(0.707107 -0.707107 -0.707107 -0.707107 784 193)" stroke="#84CCBD"/>
<rect width="64" height="64" transform="matrix(1 0 0 -1 848 193)" stroke="#84CCBD"/>
<line x1="911.646" y1="193.354" x2="847.646" y2="129.354" stroke="#84CCBD"/>
<line y1="-0.5" x2="90.5097" y2="-0.5" transform="matrix(0.707107 -0.707107 -0.707107 -0.707107 848 193)" stroke="#84CCBD"/>
<rect width="64" height="64" transform="matrix(1 0 0 -1 912 193)" stroke="#84CCBD"/>
<line x1="975.646" y1="193.354" x2="911.646" y2="129.354" stroke="#84CCBD"/>
<line y1="-0.5" x2="90.5097" y2="-0.5" transform="matrix(0.707107 -0.707107 -0.707107 -0.707107 912 193)" stroke="#84CCBD"/>
<rect width="64" height="64" transform="matrix(1 0 0 -1 976 193)" stroke="#84CCBD"/>
<line x1="1039.65" y1="193.354" x2="975.646" y2="129.354" stroke="#84CCBD"/>
<line y1="-0.5" x2="90.5097" y2="-0.5" transform="matrix(0.707107 -0.707107 -0.707107 -0.707107 976 193)" stroke="#84CCBD"/>
<rect width="64" height="64" transform="matrix(1 0 0 -1 1040 193)" stroke="#84CCBD"/>
<line x1="1103.65" y1="193.354" x2="1039.65" y2="129.354" stroke="#84CCBD"/>
<line y1="-0.5" x2="90.5097" y2="-0.5" transform="matrix(0.707107 -0.707107 -0.707107 -0.707107 1040 193)" stroke="#84CCBD"/>
<rect width="64" height="64" transform="matrix(1 0 0 -1 1104 193)" stroke="#84CCBD"/>
<line x1="1167.65" y1="193.354" x2="1103.65" y2="129.354" stroke="#84CCBD"/>
<line y1="-0.5" x2="90.5097" y2="-0.5" transform="matrix(0.707107 -0.707107 -0.707107 -0.707107 1104 193)" stroke="#84CCBD"/>
<rect width="64" height="64" transform="matrix(1 0 0 -1 1168 193)" stroke="#84CCBD"/>
<line x1="1231.65" y1="193.354" x2="1167.65" y2="129.354" stroke="#84CCBD"/>
<line y1="-0.5" x2="90.5097" y2="-0.5" transform="matrix(0.707107 -0.707107 -0.707107 -0.707107 1168 193)" stroke="#84CCBD"/>
<rect width="64" height="64" transform="matrix(1 0 0 -1 1232 193)" stroke="#84CCBD"/>
<line x1="1295.65" y1="193.354" x2="1231.65" y2="129.354" stroke="#84CCBD"/>
<line y1="-0.5" x2="90.5097" y2="-0.5" transform="matrix(0.707107 -0.707107 -0.707107 -0.707107 1232 193)" stroke="#84CCBD"/>
<rect width="64" height="64" transform="matrix(1 0 0 -1 1296 193)" stroke="#84CCBD"/>
<line x1="1359.65" y1="193.354" x2="1295.65" y2="129.354" stroke="#84CCBD"/>
<line y1="-0.5" x2="90.5097" y2="-0.5" transform="matrix(0.707107 -0.707107 -0.707107 -0.707107 1296 193)" stroke="#84CCBD"/>
<rect width="64" height="64" transform="matrix(1 0 0 -1 1360 193)" stroke="#84CCBD"/>
<line x1="1423.65" y1="193.354" x2="1359.65" y2="129.354" stroke="#84CCBD"/>
<line y1="-0.5" x2="90.5097" y2="-0.5" transform="matrix(0.707107 -0.707107 -0.707107 -0.707107 1360 193)" stroke="#84CCBD"/>
<rect width="64" height="64" transform="matrix(1 0 0 -1 1424 193)" stroke="#84CCBD"/>
<line x1="1487.65" y1="193.354" x2="1423.65" y2="129.354" stroke="#84CCBD"/>
<line y1="-0.5" x2="90.5097" y2="-0.5" transform="matrix(0.707107 -0.707107 -0.707107 -0.707107 1424 193)" stroke="#84CCBD"/>
</g>
<g opacity="0.5">
<rect width="64" height="64" transform="matrix(1 0 0 -1 -48 257)" stroke="#74C6BE"/>
<line x1="15.6464" y1="257.354" x2="-48.3535" y2="193.354" stroke="#74C6BE"/>
<line y1="-0.5" x2="90.5097" y2="-0.5" transform="matrix(0.707107 -0.707107 -0.707107 -0.707107 -48 257)" stroke="#74C6BE"/>
<rect width="64" height="64" transform="matrix(1 0 0 -1 16 257)" stroke="#74C6BE"/>
<line x1="79.6464" y1="257.354" x2="15.6464" y2="193.354" stroke="#74C6BE"/>
<line y1="-0.5" x2="90.5097" y2="-0.5" transform="matrix(0.707107 -0.707107 -0.707107 -0.707107 16 257)" stroke="#74C6BE"/>
<rect width="64" height="64" transform="matrix(1 0 0 -1 80 257)" stroke="#74C6BE"/>
<line x1="143.646" y1="257.354" x2="79.6464" y2="193.354" stroke="#74C6BE"/>
<line y1="-0.5" x2="90.5097" y2="-0.5" transform="matrix(0.707107 -0.707107 -0.707107 -0.707107 80 257)" stroke="#74C6BE"/>
<rect width="64" height="64" transform="matrix(1 0 0 -1 144 257)" stroke="#74C6BE"/>
<line x1="207.646" y1="257.354" x2="143.646" y2="193.354" stroke="#74C6BE"/>
<line y1="-0.5" x2="90.5097" y2="-0.5" transform="matrix(0.707107 -0.707107 -0.707107 -0.707107 144 257)" stroke="#74C6BE"/>
<rect width="64" height="64" transform="matrix(1 0 0 -1 208 257)" stroke="#74C6BE"/>
<line x1="271.646" y1="257.354" x2="207.646" y2="193.354" stroke="#74C6BE"/>
<line y1="-0.5" x2="90.5097" y2="-0.5" transform="matrix(0.707107 -0.707107 -0.707107 -0.707107 208 257)" stroke="#74C6BE"/>
<rect width="64" height="64" transform="matrix(1 0 0 -1 272 257)" stroke="#74C6BE"/>
<line x1="335.646" y1="257.354" x2="271.646" y2="193.354" stroke="#74C6BE"/>
<line y1="-0.5" x2="90.5097" y2="-0.5" transform="matrix(0.707107 -0.707107 -0.707107 -0.707107 272 257)" stroke="#74C6BE"/>
<rect width="64" height="64" transform="matrix(1 0 0 -1 336 257)" stroke="#74C6BE"/>
<line x1="399.646" y1="257.354" x2="335.646" y2="193.354" stroke="#74C6BE"/>
<line y1="-0.5" x2="90.5097" y2="-0.5" transform="matrix(0.707107 -0.707107 -0.707107 -0.707107 336 257)" stroke="#74C6BE"/>
<rect width="64" height="64" transform="matrix(1 0 0 -1 400 257)" stroke="#74C6BE"/>
<line x1="463.646" y1="257.354" x2="399.646" y2="193.354" stroke="#74C6BE"/>
<line y1="-0.5" x2="90.5097" y2="-0.5" transform="matrix(0.707107 -0.707107 -0.707107 -0.707107 400 257)" stroke="#74C6BE"/>
<rect width="64" height="64" transform="matrix(1 0 0 -1 464 257)" stroke="#74C6BE"/>
<line x1="527.646" y1="257.354" x2="463.646" y2="193.354" stroke="#74C6BE"/>
<line y1="-0.5" x2="90.5097" y2="-0.5" transform="matrix(0.707107 -0.707107 -0.707107 -0.707107 464 257)" stroke="#74C6BE"/>
<rect width="64" height="64" transform="matrix(1 0 0 -1 528 257)" stroke="#74C6BE"/>
<line x1="591.646" y1="257.354" x2="527.646" y2="193.354" stroke="#74C6BE"/>
<line y1="-0.5" x2="90.5097" y2="-0.5" transform="matrix(0.707107 -0.707107 -0.707107 -0.707107 528 257)" stroke="#74C6BE"/>
<rect width="64" height="64" transform="matrix(1 0 0 -1 592 257)" stroke="#74C6BE"/>
<line x1="655.646" y1="257.354" x2="591.646" y2="193.354" stroke="#74C6BE"/>
<line y1="-0.5" x2="90.5097" y2="-0.5" transform="matrix(0.707107 -0.707107 -0.707107 -0.707107 592 257)" stroke="#74C6BE"/>
<rect width="64" height="64" transform="matrix(1 0 0 -1 656 257)" stroke="#74C6BE"/>
<line x1="719.646" y1="257.354" x2="655.646" y2="193.354" stroke="#74C6BE"/>
<line y1="-0.5" x2="90.5097" y2="-0.5" transform="matrix(0.707107 -0.707107 -0.707107 -0.707107 656 257)" stroke="#74C6BE"/>
<rect width="64" height="64" transform="matrix(1 0 0 -1 720 257)" stroke="#74C6BE"/>
<line x1="783.646" y1="257.354" x2="719.646" y2="193.354" stroke="#74C6BE"/>
<line y1="-0.5" x2="90.5097" y2="-0.5" transform="matrix(0.707107 -0.707107 -0.707107 -0.707107 720 257)" stroke="#74C6BE"/>
<rect width="64" height="64" transform="matrix(1 0 0 -1 784 257)" stroke="#74C6BE"/>
<line x1="847.646" y1="257.354" x2="783.646" y2="193.354" stroke="#74C6BE"/>
<line y1="-0.5" x2="90.5097" y2="-0.5" transform="matrix(0.707107 -0.707107 -0.707107 -0.707107 784 257)" stroke="#74C6BE"/>
<rect width="64" height="64" transform="matrix(1 0 0 -1 848 257)" stroke="#74C6BE"/>
<line x1="911.646" y1="257.354" x2="847.646" y2="193.354" stroke="#74C6BE"/>
<line y1="-0.5" x2="90.5097" y2="-0.5" transform="matrix(0.707107 -0.707107 -0.707107 -0.707107 848 257)" stroke="#74C6BE"/>
<rect width="64" height="64" transform="matrix(1 0 0 -1 912 257)" stroke="#74C6BE"/>
<line x1="975.646" y1="257.354" x2="911.646" y2="193.354" stroke="#74C6BE"/>
<line y1="-0.5" x2="90.5097" y2="-0.5" transform="matrix(0.707107 -0.707107 -0.707107 -0.707107 912 257)" stroke="#74C6BE"/>
<rect width="64" height="64" transform="matrix(1 0 0 -1 976 257)" stroke="#74C6BE"/>
<line x1="1039.65" y1="257.354" x2="975.646" y2="193.354" stroke="#74C6BE"/>
<line y1="-0.5" x2="90.5097" y2="-0.5" transform="matrix(0.707107 -0.707107 -0.707107 -0.707107 976 257)" stroke="#74C6BE"/>
<rect width="64" height="64" transform="matrix(1 0 0 -1 1040 257)" stroke="#74C6BE"/>
<line x1="1103.65" y1="257.354" x2="1039.65" y2="193.354" stroke="#74C6BE"/>
<line y1="-0.5" x2="90.5097" y2="-0.5" transform="matrix(0.707107 -0.707107 -0.707107 -0.707107 1040 257)" stroke="#74C6BE"/>
<rect width="64" height="64" transform="matrix(1 0 0 -1 1104 257)" stroke="#74C6BE"/>
<line x1="1167.65" y1="257.354" x2="1103.65" y2="193.354" stroke="#74C6BE"/>
<line y1="-0.5" x2="90.5097" y2="-0.5" transform="matrix(0.707107 -0.707107 -0.707107 -0.707107 1104 257)" stroke="#74C6BE"/>
<rect width="64" height="64" transform="matrix(1 0 0 -1 1168 257)" stroke="#74C6BE"/>
<line x1="1231.65" y1="257.354" x2="1167.65" y2="193.354" stroke="#74C6BE"/>
<line y1="-0.5" x2="90.5097" y2="-0.5" transform="matrix(0.707107 -0.707107 -0.707107 -0.707107 1168 257)" stroke="#74C6BE"/>
<rect width="64" height="64" transform="matrix(1 0 0 -1 1232 257)" stroke="#74C6BE"/>
<line x1="1295.65" y1="257.354" x2="1231.65" y2="193.354" stroke="#74C6BE"/>
<line y1="-0.5" x2="90.5097" y2="-0.5" transform="matrix(0.707107 -0.707107 -0.707107 -0.707107 1232 257)" stroke="#74C6BE"/>
<rect width="64" height="64" transform="matrix(1 0 0 -1 1296 257)" stroke="#74C6BE"/>
<line x1="1359.65" y1="257.354" x2="1295.65" y2="193.354" stroke="#74C6BE"/>
<line y1="-0.5" x2="90.5097" y2="-0.5" transform="matrix(0.707107 -0.707107 -0.707107 -0.707107 1296 257)" stroke="#74C6BE"/>
<rect width="64" height="64" transform="matrix(1 0 0 -1 1360 257)" stroke="#74C6BE"/>
<line x1="1423.65" y1="257.354" x2="1359.65" y2="193.354" stroke="#74C6BE"/>
<line y1="-0.5" x2="90.5097" y2="-0.5" transform="matrix(0.707107 -0.707107 -0.707107 -0.707107 1360 257)" stroke="#74C6BE"/>
<rect width="64" height="64" transform="matrix(1 0 0 -1 1424 257)" stroke="#74C6BE"/>
<line x1="1487.65" y1="257.354" x2="1423.65" y2="193.354" stroke="#74C6BE"/>
<line y1="-0.5" x2="90.5097" y2="-0.5" transform="matrix(0.707107 -0.707107 -0.707107 -0.707107 1424 257)" stroke="#74C6BE"/>
</g>
<g opacity="0.5">
<rect width="64" height="64" transform="matrix(1 0 0 -1 -48 473)" stroke="#54B5C1"/>
<line x1="15.6464" y1="473.354" x2="-48.3535" y2="409.354" stroke="#54B5C1"/>
<line y1="-0.5" x2="90.5097" y2="-0.5" transform="matrix(0.707107 -0.707107 -0.707107 -0.707107 -48 473)" stroke="#54B5C1"/>
<rect width="64" height="64" transform="matrix(1 0 0 -1 16 473)" stroke="#54B5C1"/>
<line x1="79.6464" y1="473.354" x2="15.6464" y2="409.354" stroke="#54B5C1"/>
<line y1="-0.5" x2="90.5097" y2="-0.5" transform="matrix(0.707107 -0.707107 -0.707107 -0.707107 16 473)" stroke="#54B5C1"/>
<rect width="64" height="64" transform="matrix(1 0 0 -1 80 473)" stroke="#54B5C1"/>
<line x1="143.646" y1="473.354" x2="79.6464" y2="409.354" stroke="#54B5C1"/>
<line y1="-0.5" x2="90.5097" y2="-0.5" transform="matrix(0.707107 -0.707107 -0.707107 -0.707107 80 473)" stroke="#54B5C1"/>
<rect width="64" height="64" transform="matrix(1 0 0 -1 144 473)" stroke="#54B5C1"/>
<line x1="207.646" y1="473.354" x2="143.646" y2="409.354" stroke="#54B5C1"/>
<line y1="-0.5" x2="90.5097" y2="-0.5" transform="matrix(0.707107 -0.707107 -0.707107 -0.707107 144 473)" stroke="#54B5C1"/>
<rect width="64" height="64" transform="matrix(1 0 0 -1 208 473)" stroke="#54B5C1"/>
<line x1="271.646" y1="473.354" x2="207.646" y2="409.354" stroke="#54B5C1"/>
<line y1="-0.5" x2="90.5097" y2="-0.5" transform="matrix(0.707107 -0.707107 -0.707107 -0.707107 208 473)" stroke="#54B5C1"/>
<rect width="64" height="64" transform="matrix(1 0 0 -1 272 473)" stroke="#54B5C1"/>
<line x1="335.646" y1="473.354" x2="271.646" y2="409.354" stroke="#54B5C1"/>
<line y1="-0.5" x2="90.5097" y2="-0.5" transform="matrix(0.707107 -0.707107 -0.707107 -0.707107 272 473)" stroke="#54B5C1"/>
<rect width="64" height="64" transform="matrix(1 0 0 -1 336 473)" stroke="#54B5C1"/>
<line x1="399.646" y1="473.354" x2="335.646" y2="409.354" stroke="#54B5C1"/>
<line y1="-0.5" x2="90.5097" y2="-0.5" transform="matrix(0.707107 -0.707107 -0.707107 -0.707107 336 473)" stroke="#54B5C1"/>
<rect width="64" height="64" transform="matrix(1 0 0 -1 400 473)" stroke="#54B5C1"/>
<line x1="463.646" y1="473.354" x2="399.646" y2="409.354" stroke="#54B5C1"/>
<line y1="-0.5" x2="90.5097" y2="-0.5" transform="matrix(0.707107 -0.707107 -0.707107 -0.707107 400 473)" stroke="#54B5C1"/>
<rect width="64" height="64" transform="matrix(1 0 0 -1 464 473)" stroke="#54B5C1"/>
<line x1="527.646" y1="473.354" x2="463.646" y2="409.354" stroke="#54B5C1"/>
<line y1="-0.5" x2="90.5097" y2="-0.5" transform="matrix(0.707107 -0.707107 -0.707107 -0.707107 464 473)" stroke="#54B5C1"/>
<rect width="64" height="64" transform="matrix(1 0 0 -1 528 473)" stroke="#54B5C1"/>
<line x1="591.646" y1="473.354" x2="527.646" y2="409.354" stroke="#54B5C1"/>
<line y1="-0.5" x2="90.5097" y2="-0.5" transform="matrix(0.707107 -0.707107 -0.707107 -0.707107 528 473)" stroke="#54B5C1"/>
<rect width="64" height="64" transform="matrix(1 0 0 -1 592 473)" stroke="#54B5C1"/>
<line x1="655.646" y1="473.354" x2="591.646" y2="409.354" stroke="#54B5C1"/>
<line y1="-0.5" x2="90.5097" y2="-0.5" transform="matrix(0.707107 -0.707107 -0.707107 -0.707107 592 473)" stroke="#54B5C1"/>
<rect width="64" height="64" transform="matrix(1 0 0 -1 656 473)" stroke="#54B5C1"/>
<line x1="719.646" y1="473.354" x2="655.646" y2="409.354" stroke="#54B5C1"/>
<line y1="-0.5" x2="90.5097" y2="-0.5" transform="matrix(0.707107 -0.707107 -0.707107 -0.707107 656 473)" stroke="#54B5C1"/>
<rect width="64" height="64" transform="matrix(1 0 0 -1 720 473)" stroke="#54B5C1"/>
<line x1="783.646" y1="473.354" x2="719.646" y2="409.354" stroke="#54B5C1"/>
<line y1="-0.5" x2="90.5097" y2="-0.5" transform="matrix(0.707107 -0.707107 -0.707107 -0.707107 720 473)" stroke="#54B5C1"/>
<rect width="64" height="64" transform="matrix(1 0 0 -1 784 473)" stroke="#54B5C1"/>
<line x1="847.646" y1="473.354" x2="783.646" y2="409.354" stroke="#54B5C1"/>
<line y1="-0.5" x2="90.5097" y2="-0.5" transform="matrix(0.707107 -0.707107 -0.707107 -0.707107 784 473)" stroke="#54B5C1"/>
<rect width="64" height="64" transform="matrix(1 0 0 -1 848 473)" stroke="#54B5C1"/>
<line x1="911.646" y1="473.354" x2="847.646" y2="409.354" stroke="#54B5C1"/>
<line y1="-0.5" x2="90.5097" y2="-0.5" transform="matrix(0.707107 -0.707107 -0.707107 -0.707107 848 473)" stroke="#54B5C1"/>
<rect width="64" height="64" transform="matrix(1 0 0 -1 912 473)" stroke="#54B5C1"/>
<line x1="975.646" y1="473.354" x2="911.646" y2="409.354" stroke="#54B5C1"/>
<line y1="-0.5" x2="90.5097" y2="-0.5" transform="matrix(0.707107 -0.707107 -0.707107 -0.707107 912 473)" stroke="#54B5C1"/>
<rect width="64" height="64" transform="matrix(1 0 0 -1 976 473)" stroke="#54B5C1"/>
<line x1="1039.65" y1="473.354" x2="975.646" y2="409.354" stroke="#54B5C1"/>
<line y1="-0.5" x2="90.5097" y2="-0.5" transform="matrix(0.707107 -0.707107 -0.707107 -0.707107 976 473)" stroke="#54B5C1"/>
<rect width="64" height="64" transform="matrix(1 0 0 -1 1040 473)" stroke="#54B5C1"/>
<line x1="1103.65" y1="473.354" x2="1039.65" y2="409.354" stroke="#54B5C1"/>
<line y1="-0.5" x2="90.5097" y2="-0.5" transform="matrix(0.707107 -0.707107 -0.707107 -0.707107 1040 473)" stroke="#54B5C1"/>
<rect width="64" height="64" transform="matrix(1 0 0 -1 1104 473)" stroke="#54B5C1"/>
<line x1="1167.65" y1="473.354" x2="1103.65" y2="409.354" stroke="#54B5C1"/>
<line y1="-0.5" x2="90.5097" y2="-0.5" transform="matrix(0.707107 -0.707107 -0.707107 -0.707107 1104 473)" stroke="#54B5C1"/>
<rect width="64" height="64" transform="matrix(1 0 0 -1 1168 473)" stroke="#54B5C1"/>
<line x1="1231.65" y1="473.354" x2="1167.65" y2="409.354" stroke="#54B5C1"/>
<line y1="-0.5" x2="90.5097" y2="-0.5" transform="matrix(0.707107 -0.707107 -0.707107 -0.707107 1168 473)" stroke="#54B5C1"/>
<rect width="64" height="64" transform="matrix(1 0 0 -1 1232 473)" stroke="#54B5C1"/>
<line x1="1295.65" y1="473.354" x2="1231.65" y2="409.354" stroke="#54B5C1"/>
<line y1="-0.5" x2="90.5097" y2="-0.5" transform="matrix(0.707107 -0.707107 -0.707107 -0.707107 1232 473)" stroke="#54B5C1"/>
<rect width="64" height="64" transform="matrix(1 0 0 -1 1296 473)" stroke="#54B5C1"/>
<line x1="1359.65" y1="473.354" x2="1295.65" y2="409.354" stroke="#54B5C1"/>
<line y1="-0.5" x2="90.5097" y2="-0.5" transform="matrix(0.707107 -0.707107 -0.707107 -0.707107 1296 473)" stroke="#54B5C1"/>
<rect width="64" height="64" transform="matrix(1 0 0 -1 1360 473)" stroke="#54B5C1"/>
<line x1="1423.65" y1="473.354" x2="1359.65" y2="409.354" stroke="#54B5C1"/>
<line y1="-0.5" x2="90.5097" y2="-0.5" transform="matrix(0.707107 -0.707107 -0.707107 -0.707107 1360 473)" stroke="#54B5C1"/>
<rect width="64" height="64" transform="matrix(1 0 0 -1 1424 473)" stroke="#54B5C1"/>
<line x1="1487.65" y1="473.354" x2="1423.65" y2="409.354" stroke="#54B5C1"/>
<line y1="-0.5" x2="90.5097" y2="-0.5" transform="matrix(0.707107 -0.707107 -0.707107 -0.707107 1424 473)" stroke="#54B5C1"/>
</g>
<g opacity="0.4">
<rect width="64" height="64" transform="matrix(1 0 0 -1 -48 537)" stroke="#44AAC0"/>
<line x1="15.6464" y1="537.354" x2="-48.3535" y2="473.354" stroke="#44AAC0"/>
<line y1="-0.5" x2="90.5097" y2="-0.5" transform="matrix(0.707107 -0.707107 -0.707107 -0.707107 -48 537)" stroke="#44AAC0"/>
<rect width="64" height="64" transform="matrix(1 0 0 -1 16 537)" stroke="#44AAC0"/>
<line x1="79.6464" y1="537.354" x2="15.6464" y2="473.354" stroke="#44AAC0"/>
<line y1="-0.5" x2="90.5097" y2="-0.5" transform="matrix(0.707107 -0.707107 -0.707107 -0.707107 16 537)" stroke="#44AAC0"/>
<rect width="64" height="64" transform="matrix(1 0 0 -1 80 537)" stroke="#44AAC0"/>
<line x1="143.646" y1="537.354" x2="79.6464" y2="473.354" stroke="#44AAC0"/>
<line y1="-0.5" x2="90.5097" y2="-0.5" transform="matrix(0.707107 -0.707107 -0.707107 -0.707107 80 537)" stroke="#44AAC0"/>
<rect width="64" height="64" transform="matrix(1 0 0 -1 144 537)" stroke="#44AAC0"/>
<line x1="207.646" y1="537.354" x2="143.646" y2="473.354" stroke="#44AAC0"/>
<line y1="-0.5" x2="90.5097" y2="-0.5" transform="matrix(0.707107 -0.707107 -0.707107 -0.707107 144 537)" stroke="#44AAC0"/>
<rect width="64" height="64" transform="matrix(1 0 0 -1 208 537)" stroke="#44AAC0"/>
<line x1="271.646" y1="537.354" x2="207.646" y2="473.354" stroke="#44AAC0"/>
<line y1="-0.5" x2="90.5097" y2="-0.5" transform="matrix(0.707107 -0.707107 -0.707107 -0.707107 208 537)" stroke="#44AAC0"/>
<rect width="64" height="64" transform="matrix(1 0 0 -1 272 537)" stroke="#44AAC0"/>
<line x1="335.646" y1="537.354" x2="271.646" y2="473.354" stroke="#44AAC0"/>
<line y1="-0.5" x2="90.5097" y2="-0.5" transform="matrix(0.707107 -0.707107 -0.707107 -0.707107 272 537)" stroke="#44AAC0"/>
<rect width="64" height="64" transform="matrix(1 0 0 -1 336 537)" stroke="#44AAC0"/>
<line x1="399.646" y1="537.354" x2="335.646" y2="473.354" stroke="#44AAC0"/>
<line y1="-0.5" x2="90.5097" y2="-0.5" transform="matrix(0.707107 -0.707107 -0.707107 -0.707107 336 537)" stroke="#44AAC0"/>
<rect width="64" height="64" transform="matrix(1 0 0 -1 400 537)" stroke="#44AAC0"/>
<line x1="463.646" y1="537.354" x2="399.646" y2="473.354" stroke="#44AAC0"/>
<line y1="-0.5" x2="90.5097" y2="-0.5" transform="matrix(0.707107 -0.707107 -0.707107 -0.707107 400 537)" stroke="#44AAC0"/>
<rect width="64" height="64" transform="matrix(1 0 0 -1 464 537)" stroke="#44AAC0"/>
<line x1="527.646" y1="537.354" x2="463.646" y2="473.354" stroke="#44AAC0"/>
<line y1="-0.5" x2="90.5097" y2="-0.5" transform="matrix(0.707107 -0.707107 -0.707107 -0.707107 464 537)" stroke="#44AAC0"/>
<rect width="64" height="64" transform="matrix(1 0 0 -1 528 537)" stroke="#44AAC0"/>
<line x1="591.646" y1="537.354" x2="527.646" y2="473.354" stroke="#44AAC0"/>
<line y1="-0.5" x2="90.5097" y2="-0.5" transform="matrix(0.707107 -0.707107 -0.707107 -0.707107 528 537)" stroke="#44AAC0"/>
<rect width="64" height="64" transform="matrix(1 0 0 -1 592 537)" stroke="#44AAC0"/>
<line x1="655.646" y1="537.354" x2="591.646" y2="473.354" stroke="#44AAC0"/>
<line y1="-0.5" x2="90.5097" y2="-0.5" transform="matrix(0.707107 -0.707107 -0.707107 -0.707107 592 537)" stroke="#44AAC0"/>
<rect width="64" height="64" transform="matrix(1 0 0 -1 656 537)" stroke="#44AAC0"/>
<line x1="719.646" y1="537.354" x2="655.646" y2="473.354" stroke="#44AAC0"/>
<line y1="-0.5" x2="90.5097" y2="-0.5" transform="matrix(0.707107 -0.707107 -0.707107 -0.707107 656 537)" stroke="#44AAC0"/>
<rect width="64" height="64" transform="matrix(1 0 0 -1 720 537)" stroke="#44AAC0"/>
<line x1="783.646" y1="537.354" x2="719.646" y2="473.354" stroke="#44AAC0"/>
<line y1="-0.5" x2="90.5097" y2="-0.5" transform="matrix(0.707107 -0.707107 -0.707107 -0.707107 720 537)" stroke="#44AAC0"/>
<rect width="64" height="64" transform="matrix(1 0 0 -1 784 537)" stroke="#44AAC0"/>
<line x1="847.646" y1="537.354" x2="783.646" y2="473.354" stroke="#44AAC0"/>
<line y1="-0.5" x2="90.5097" y2="-0.5" transform="matrix(0.707107 -0.707107 -0.707107 -0.707107 784 537)" stroke="#44AAC0"/>
<rect width="64" height="64" transform="matrix(1 0 0 -1 848 537)" stroke="#44AAC0"/>
<line x1="911.646" y1="537.354" x2="847.646" y2="473.354" stroke="#44AAC0"/>
<line y1="-0.5" x2="90.5097" y2="-0.5" transform="matrix(0.707107 -0.707107 -0.707107 -0.707107 848 537)" stroke="#44AAC0"/>
<rect width="64" height="64" transform="matrix(1 0 0 -1 912 537)" stroke="#44AAC0"/>
<line x1="975.646" y1="537.354" x2="911.646" y2="473.354" stroke="#44AAC0"/>
<line y1="-0.5" x2="90.5097" y2="-0.5" transform="matrix(0.707107 -0.707107 -0.707107 -0.707107 912 537)" stroke="#44AAC0"/>
<rect width="64" height="64" transform="matrix(1 0 0 -1 976 537)" stroke="#44AAC0"/>
<line x1="1039.65" y1="537.354" x2="975.646" y2="473.354" stroke="#44AAC0"/>
<line y1="-0.5" x2="90.5097" y2="-0.5" transform="matrix(0.707107 -0.707107 -0.707107 -0.707107 976 537)" stroke="#44AAC0"/>
<rect width="64" height="64" transform="matrix(1 0 0 -1 1040 537)" stroke="#44AAC0"/>
<line x1="1103.65" y1="537.354" x2="1039.65" y2="473.354" stroke="#44AAC0"/>
<line y1="-0.5" x2="90.5097" y2="-0.5" transform="matrix(0.707107 -0.707107 -0.707107 -0.707107 1040 537)" stroke="#44AAC0"/>
<rect width="64" height="64" transform="matrix(1 0 0 -1 1104 537)" stroke="#44AAC0"/>
<line x1="1167.65" y1="537.354" x2="1103.65" y2="473.354" stroke="#44AAC0"/>
<line y1="-0.5" x2="90.5097" y2="-0.5" transform="matrix(0.707107 -0.707107 -0.707107 -0.707107 1104 537)" stroke="#44AAC0"/>
<rect width="64" height="64" transform="matrix(1 0 0 -1 1168 537)" stroke="#44AAC0"/>
<line x1="1231.65" y1="537.354" x2="1167.65" y2="473.354" stroke="#44AAC0"/>
<line y1="-0.5" x2="90.5097" y2="-0.5" transform="matrix(0.707107 -0.707107 -0.707107 -0.707107 1168 537)" stroke="#44AAC0"/>
<rect width="64" height="64" transform="matrix(1 0 0 -1 1232 537)" stroke="#44AAC0"/>
<line x1="1295.65" y1="537.354" x2="1231.65" y2="473.354" stroke="#44AAC0"/>
<line y1="-0.5" x2="90.5097" y2="-0.5" transform="matrix(0.707107 -0.707107 -0.707107 -0.707107 1232 537)" stroke="#44AAC0"/>
<rect width="64" height="64" transform="matrix(1 0 0 -1 1296 537)" stroke="#44AAC0"/>
<line x1="1359.65" y1="537.354" x2="1295.65" y2="473.354" stroke="#44AAC0"/>
<line y1="-0.5" x2="90.5097" y2="-0.5" transform="matrix(0.707107 -0.707107 -0.707107 -0.707107 1296 537)" stroke="#44AAC0"/>
<rect width="64" height="64" transform="matrix(1 0 0 -1 1360 537)" stroke="#44AAC0"/>
<line x1="1423.65" y1="537.354" x2="1359.65" y2="473.354" stroke="#44AAC0"/>
<line y1="-0.5" x2="90.5097" y2="-0.5" transform="matrix(0.707107 -0.707107 -0.707107 -0.707107 1360 537)" stroke="#44AAC0"/>
<rect width="64" height="64" transform="matrix(1 0 0 -1 1424 537)" stroke="#44AAC0"/>
<line x1="1487.65" y1="537.354" x2="1423.65" y2="473.354" stroke="#44AAC0"/>
<line y1="-0.5" x2="90.5097" y2="-0.5" transform="matrix(0.707107 -0.707107 -0.707107 -0.707107 1424 537)" stroke="#44AAC0"/>
</g>
<g opacity="0.3">
<rect width="64" height="64" transform="matrix(1 0 0 -1 -48 601)" stroke="#508AB2"/>
<line x1="15.6464" y1="601.354" x2="-48.3535" y2="537.354" stroke="#508AB2"/>
<line y1="-0.5" x2="90.5097" y2="-0.5" transform="matrix(0.707107 -0.707107 -0.707107 -0.707107 -48 601)" stroke="#508AB2"/>
<rect width="64" height="64" transform="matrix(1 0 0 -1 16 601)" stroke="#508AB2"/>
<line x1="79.6464" y1="601.354" x2="15.6464" y2="537.354" stroke="#508AB2"/>
<line y1="-0.5" x2="90.5097" y2="-0.5" transform="matrix(0.707107 -0.707107 -0.707107 -0.707107 16 601)" stroke="#508AB2"/>
<rect width="64" height="64" transform="matrix(1 0 0 -1 80 601)" stroke="#508AB2"/>
<line x1="143.646" y1="601.354" x2="79.6464" y2="537.354" stroke="#508AB2"/>
<line y1="-0.5" x2="90.5097" y2="-0.5" transform="matrix(0.707107 -0.707107 -0.707107 -0.707107 80 601)" stroke="#508AB2"/>
<rect width="64" height="64" transform="matrix(1 0 0 -1 144 601)" stroke="#508AB2"/>
<line x1="207.646" y1="601.354" x2="143.646" y2="537.354" stroke="#508AB2"/>
<line y1="-0.5" x2="90.5097" y2="-0.5" transform="matrix(0.707107 -0.707107 -0.707107 -0.707107 144 601)" stroke="#508AB2"/>
<rect width="64" height="64" transform="matrix(1 0 0 -1 208 601)" stroke="#508AB2"/>
<line x1="271.646" y1="601.354" x2="207.646" y2="537.354" stroke="#508AB2"/>
<line y1="-0.5" x2="90.5097" y2="-0.5" transform="matrix(0.707107 -0.707107 -0.707107 -0.707107 208 601)" stroke="#508AB2"/>
<rect width="64" height="64" transform="matrix(1 0 0 -1 272 601)" stroke="#508AB2"/>
<line x1="335.646" y1="601.354" x2="271.646" y2="537.354" stroke="#508AB2"/>
<line y1="-0.5" x2="90.5097" y2="-0.5" transform="matrix(0.707107 -0.707107 -0.707107 -0.707107 272 601)" stroke="#508AB2"/>
<rect width="64" height="64" transform="matrix(1 0 0 -1 336 601)" stroke="#508AB2"/>
<line x1="399.646" y1="601.354" x2="335.646" y2="537.354" stroke="#508AB2"/>
<line y1="-0.5" x2="90.5097" y2="-0.5" transform="matrix(0.707107 -0.707107 -0.707107 -0.707107 336 601)" stroke="#508AB2"/>
<rect width="64" height="64" transform="matrix(1 0 0 -1 400 601)" stroke="#508AB2"/>
<line x1="463.646" y1="601.354" x2="399.646" y2="537.354" stroke="#508AB2"/>
<line y1="-0.5" x2="90.5097" y2="-0.5" transform="matrix(0.707107 -0.707107 -0.707107 -0.707107 400 601)" stroke="#508AB2"/>
<rect width="64" height="64" transform="matrix(1 0 0 -1 464 601)" stroke="#508AB2"/>
<line x1="527.646" y1="601.354" x2="463.646" y2="537.354" stroke="#508AB2"/>
<line y1="-0.5" x2="90.5097" y2="-0.5" transform="matrix(0.707107 -0.707107 -0.707107 -0.707107 464 601)" stroke="#508AB2"/>
<rect width="64" height="64" transform="matrix(1 0 0 -1 528 601)" stroke="#508AB2"/>
<line x1="591.646" y1="601.354" x2="527.646" y2="537.354" stroke="#508AB2"/>
<line y1="-0.5" x2="90.5097" y2="-0.5" transform="matrix(0.707107 -0.707107 -0.707107 -0.707107 528 601)" stroke="#508AB2"/>
<rect width="64" height="64" transform="matrix(1 0 0 -1 592 601)" stroke="#508AB2"/>
<line x1="655.646" y1="601.354" x2="591.646" y2="537.354" stroke="#508AB2"/>
<line y1="-0.5" x2="90.5097" y2="-0.5" transform="matrix(0.707107 -0.707107 -0.707107 -0.707107 592 601)" stroke="#508AB2"/>
<rect width="64" height="64" transform="matrix(1 0 0 -1 656 601)" stroke="#508AB2"/>
<line x1="719.646" y1="601.354" x2="655.646" y2="537.354" stroke="#508AB2"/>
<line y1="-0.5" x2="90.5097" y2="-0.5" transform="matrix(0.707107 -0.707107 -0.707107 -0.707107 656 601)" stroke="#508AB2"/>
<rect width="64" height="64" transform="matrix(1 0 0 -1 720 601)" stroke="#508AB2"/>
<line x1="783.646" y1="601.354" x2="719.646" y2="537.354" stroke="#508AB2"/>
<line y1="-0.5" x2="90.5097" y2="-0.5" transform="matrix(0.707107 -0.707107 -0.707107 -0.707107 720 601)" stroke="#508AB2"/>
<rect width="64" height="64" transform="matrix(1 0 0 -1 784 601)" stroke="#508AB2"/>
<line x1="847.646" y1="601.354" x2="783.646" y2="537.354" stroke="#508AB2"/>
<line y1="-0.5" x2="90.5097" y2="-0.5" transform="matrix(0.707107 -0.707107 -0.707107 -0.707107 784 601)" stroke="#508AB2"/>
<rect width="64" height="64" transform="matrix(1 0 0 -1 848 601)" stroke="#508AB2"/>
<line x1="911.646" y1="601.354" x2="847.646" y2="537.354" stroke="#508AB2"/>
<line y1="-0.5" x2="90.5097" y2="-0.5" transform="matrix(0.707107 -0.707107 -0.707107 -0.707107 848 601)" stroke="#508AB2"/>
<rect width="64" height="64" transform="matrix(1 0 0 -1 912 601)" stroke="#508AB2"/>
<line x1="975.646" y1="601.354" x2="911.646" y2="537.354" stroke="#508AB2"/>
<line y1="-0.5" x2="90.5097" y2="-0.5" transform="matrix(0.707107 -0.707107 -0.707107 -0.707107 912 601)" stroke="#508AB2"/>
<rect width="64" height="64" transform="matrix(1 0 0 -1 976 601)" stroke="#508AB2"/>
<line x1="1039.65" y1="601.354" x2="975.646" y2="537.354" stroke="#508AB2"/>
<line y1="-0.5" x2="90.5097" y2="-0.5" transform="matrix(0.707107 -0.707107 -0.707107 -0.707107 976 601)" stroke="#508AB2"/>
<rect width="64" height="64" transform="matrix(1 0 0 -1 1040 601)" stroke="#508AB2"/>
<line x1="1103.65" y1="601.354" x2="1039.65" y2="537.354" stroke="#508AB2"/>
<line y1="-0.5" x2="90.5097" y2="-0.5" transform="matrix(0.707107 -0.707107 -0.707107 -0.707107 1040 601)" stroke="#508AB2"/>
<rect width="64" height="64" transform="matrix(1 0 0 -1 1104 601)" stroke="#508AB2"/>
<line x1="1167.65" y1="601.354" x2="1103.65" y2="537.354" stroke="#508AB2"/>
<line y1="-0.5" x2="90.5097" y2="-0.5" transform="matrix(0.707107 -0.707107 -0.707107 -0.707107 1104 601)" stroke="#508AB2"/>
<rect width="64" height="64" transform="matrix(1 0 0 -1 1168 601)" stroke="#508AB2"/>
<line x1="1231.65" y1="601.354" x2="1167.65" y2="537.354" stroke="#508AB2"/>
<line y1="-0.5" x2="90.5097" y2="-0.5" transform="matrix(0.707107 -0.707107 -0.707107 -0.707107 1168 601)" stroke="#508AB2"/>
<rect width="64" height="64" transform="matrix(1 0 0 -1 1232 601)" stroke="#508AB2"/>
<line x1="1295.65" y1="601.354" x2="1231.65" y2="537.354" stroke="#508AB2"/>
<line y1="-0.5" x2="90.5097" y2="-0.5" transform="matrix(0.707107 -0.707107 -0.707107 -0.707107 1232 601)" stroke="#508AB2"/>
<rect width="64" height="64" transform="matrix(1 0 0 -1 1296 601)" stroke="#508AB2"/>
<line x1="1359.65" y1="601.354" x2="1295.65" y2="537.354" stroke="#508AB2"/>
<line y1="-0.5" x2="90.5097" y2="-0.5" transform="matrix(0.707107 -0.707107 -0.707107 -0.707107 1296 601)" stroke="#508AB2"/>
<rect width="64" height="64" transform="matrix(1 0 0 -1 1360 601)" stroke="#508AB2"/>
<line x1="1423.65" y1="601.354" x2="1359.65" y2="537.354" stroke="#508AB2"/>
<line y1="-0.5" x2="90.5097" y2="-0.5" transform="matrix(0.707107 -0.707107 -0.707107 -0.707107 1360 601)" stroke="#508AB2"/>
<rect width="64" height="64" transform="matrix(1 0 0 -1 1424 601)" stroke="#508AB2"/>
<line x1="1487.65" y1="601.354" x2="1423.65" y2="537.354" stroke="#508AB2"/>
<line y1="-0.5" x2="90.5097" y2="-0.5" transform="matrix(0.707107 -0.707107 -0.707107 -0.707107 1424 601)" stroke="#508AB2"/>
</g>
<g opacity="0.2">
<rect width="64" height="64" transform="matrix(1 0 0 -1 -48 665)" stroke="#5181AE"/>
<line x1="15.6464" y1="665.354" x2="-48.3535" y2="601.354" stroke="#5181AE"/>
<line y1="-0.5" x2="90.5097" y2="-0.5" transform="matrix(0.707107 -0.707107 -0.707107 -0.707107 -48 665)" stroke="#5181AE"/>
<rect width="64" height="64" transform="matrix(1 0 0 -1 16 665)" stroke="#5181AE"/>
<line x1="79.6464" y1="665.354" x2="15.6464" y2="601.354" stroke="#5181AE"/>
<line y1="-0.5" x2="90.5097" y2="-0.5" transform="matrix(0.707107 -0.707107 -0.707107 -0.707107 16 665)" stroke="#5181AE"/>
<rect width="64" height="64" transform="matrix(1 0 0 -1 80 665)" stroke="#5181AE"/>
<line x1="143.646" y1="665.354" x2="79.6464" y2="601.354" stroke="#5181AE"/>
<line y1="-0.5" x2="90.5097" y2="-0.5" transform="matrix(0.707107 -0.707107 -0.707107 -0.707107 80 665)" stroke="#5181AE"/>
<rect width="64" height="64" transform="matrix(1 0 0 -1 144 665)" stroke="#5181AE"/>
<line x1="207.646" y1="665.354" x2="143.646" y2="601.354" stroke="#5181AE"/>
<line y1="-0.5" x2="90.5097" y2="-0.5" transform="matrix(0.707107 -0.707107 -0.707107 -0.707107 144 665)" stroke="#5181AE"/>
<rect width="64" height="64" transform="matrix(1 0 0 -1 208 665)" stroke="#5181AE"/>
<line x1="271.646" y1="665.354" x2="207.646" y2="601.354" stroke="#5181AE"/>
<line y1="-0.5" x2="90.5097" y2="-0.5" transform="matrix(0.707107 -0.707107 -0.707107 -0.707107 208 665)" stroke="#5181AE"/>
<rect width="64" height="64" transform="matrix(1 0 0 -1 272 665)" stroke="#5181AE"/>
<line x1="335.646" y1="665.354" x2="271.646" y2="601.354" stroke="#5181AE"/>
<line y1="-0.5" x2="90.5097" y2="-0.5" transform="matrix(0.707107 -0.707107 -0.707107 -0.707107 272 665)" stroke="#5181AE"/>
<rect width="64" height="64" transform="matrix(1 0 0 -1 336 665)" stroke="#5181AE"/>
<line x1="399.646" y1="665.354" x2="335.646" y2="601.354" stroke="#5181AE"/>
<line y1="-0.5" x2="90.5097" y2="-0.5" transform="matrix(0.707107 -0.707107 -0.707107 -0.707107 336 665)" stroke="#5181AE"/>
<rect width="64" height="64" transform="matrix(1 0 0 -1 400 665)" stroke="#5181AE"/>
<line x1="463.646" y1="665.354" x2="399.646" y2="601.354" stroke="#5181AE"/>
<line y1="-0.5" x2="90.5097" y2="-0.5" transform="matrix(0.707107 -0.707107 -0.707107 -0.707107 400 665)" stroke="#5181AE"/>
<rect width="64" height="64" transform="matrix(1 0 0 -1 464 665)" stroke="#5181AE"/>
<line x1="527.646" y1="665.354" x2="463.646" y2="601.354" stroke="#5181AE"/>
<line y1="-0.5" x2="90.5097" y2="-0.5" transform="matrix(0.707107 -0.707107 -0.707107 -0.707107 464 665)" stroke="#5181AE"/>
<rect width="64" height="64" transform="matrix(1 0 0 -1 528 665)" stroke="#5181AE"/>
<line x1="591.646" y1="665.354" x2="527.646" y2="601.354" stroke="#5181AE"/>
<line y1="-0.5" x2="90.5097" y2="-0.5" transform="matrix(0.707107 -0.707107 -0.707107 -0.707107 528 665)" stroke="#5181AE"/>
<rect width="64" height="64" transform="matrix(1 0 0 -1 592 665)" stroke="#5181AE"/>
<line x1="655.646" y1="665.354" x2="591.646" y2="601.354" stroke="#5181AE"/>
<line y1="-0.5" x2="90.5097" y2="-0.5" transform="matrix(0.707107 -0.707107 -0.707107 -0.707107 592 665)" stroke="#5181AE"/>
<rect width="64" height="64" transform="matrix(1 0 0 -1 656 665)" stroke="#5181AE"/>
<line x1="719.646" y1="665.354" x2="655.646" y2="601.354" stroke="#5181AE"/>
<line y1="-0.5" x2="90.5097" y2="-0.5" transform="matrix(0.707107 -0.707107 -0.707107 -0.707107 656 665)" stroke="#5181AE"/>
<rect width="64" height="64" transform="matrix(1 0 0 -1 720 665)" stroke="#5181AE"/>
<line x1="783.646" y1="665.354" x2="719.646" y2="601.354" stroke="#5181AE"/>
<line y1="-0.5" x2="90.5097" y2="-0.5" transform="matrix(0.707107 -0.707107 -0.707107 -0.707107 720 665)" stroke="#5181AE"/>
<rect width="64" height="64" transform="matrix(1 0 0 -1 784 665)" stroke="#5181AE"/>
<line x1="847.646" y1="665.354" x2="783.646" y2="601.354" stroke="#5181AE"/>
<line y1="-0.5" x2="90.5097" y2="-0.5" transform="matrix(0.707107 -0.707107 -0.707107 -0.707107 784 665)" stroke="#5181AE"/>
<rect width="64" height="64" transform="matrix(1 0 0 -1 848 665)" stroke="#5181AE"/>
<line x1="911.646" y1="665.354" x2="847.646" y2="601.354" stroke="#5181AE"/>
<line y1="-0.5" x2="90.5097" y2="-0.5" transform="matrix(0.707107 -0.707107 -0.707107 -0.707107 848 665)" stroke="#5181AE"/>
<rect width="64" height="64" transform="matrix(1 0 0 -1 912 665)" stroke="#5181AE"/>
<line x1="975.646" y1="665.354" x2="911.646" y2="601.354" stroke="#5181AE"/>
<line y1="-0.5" x2="90.5097" y2="-0.5" transform="matrix(0.707107 -0.707107 -0.707107 -0.707107 912 665)" stroke="#5181AE"/>
<rect width="64" height="64" transform="matrix(1 0 0 -1 976 665)" stroke="#5181AE"/>
<line x1="1039.65" y1="665.354" x2="975.646" y2="601.354" stroke="#5181AE"/>
<line y1="-0.5" x2="90.5097" y2="-0.5" transform="matrix(0.707107 -0.707107 -0.707107 -0.707107 976 665)" stroke="#5181AE"/>
<rect width="64" height="64" transform="matrix(1 0 0 -1 1040 665)" stroke="#5181AE"/>
<line x1="1103.65" y1="665.354" x2="1039.65" y2="601.354" stroke="#5181AE"/>
<line y1="-0.5" x2="90.5097" y2="-0.5" transform="matrix(0.707107 -0.707107 -0.707107 -0.707107 1040 665)" stroke="#5181AE"/>
<rect width="64" height="64" transform="matrix(1 0 0 -1 1104 665)" stroke="#5181AE"/>
<line x1="1167.65" y1="665.354" x2="1103.65" y2="601.354" stroke="#5181AE"/>
<line y1="-0.5" x2="90.5097" y2="-0.5" transform="matrix(0.707107 -0.707107 -0.707107 -0.707107 1104 665)" stroke="#5181AE"/>
<rect width="64" height="64" transform="matrix(1 0 0 -1 1168 665)" stroke="#5181AE"/>
<line x1="1231.65" y1="665.354" x2="1167.65" y2="601.354" stroke="#5181AE"/>
<line y1="-0.5" x2="90.5097" y2="-0.5" transform="matrix(0.707107 -0.707107 -0.707107 -0.707107 1168 665)" stroke="#5181AE"/>
<rect width="64" height="64" transform="matrix(1 0 0 -1 1232 665)" stroke="#5181AE"/>
<line x1="1295.65" y1="665.354" x2="1231.65" y2="601.354" stroke="#5181AE"/>
<line y1="-0.5" x2="90.5097" y2="-0.5" transform="matrix(0.707107 -0.707107 -0.707107 -0.707107 1232 665)" stroke="#5181AE"/>
<rect width="64" height="64" transform="matrix(1 0 0 -1 1296 665)" stroke="#5181AE"/>
<line x1="1359.65" y1="665.354" x2="1295.65" y2="601.354" stroke="#5181AE"/>
<line y1="-0.5" x2="90.5097" y2="-0.5" transform="matrix(0.707107 -0.707107 -0.707107 -0.707107 1296 665)" stroke="#5181AE"/>
<rect width="64" height="64" transform="matrix(1 0 0 -1 1360 665)" stroke="#5181AE"/>
<line x1="1423.65" y1="665.354" x2="1359.65" y2="601.354" stroke="#5181AE"/>
<line y1="-0.5" x2="90.5097" y2="-0.5" transform="matrix(0.707107 -0.707107 -0.707107 -0.707107 1360 665)" stroke="#5181AE"/>
<rect width="64" height="64" transform="matrix(1 0 0 -1 1424 665)" stroke="#5181AE"/>
<line x1="1487.65" y1="665.354" x2="1423.65" y2="601.354" stroke="#5181AE"/>
<line y1="-0.5" x2="90.5097" y2="-0.5" transform="matrix(0.707107 -0.707107 -0.707107 -0.707107 1424 665)" stroke="#5181AE"/>
</g>
</svg>
