<svg width="87" height="41" viewBox="0 0 87 41" fill="none" xmlns="http://www.w3.org/2000/svg">
<path d="M2.44163 9.02534V31H4.66961V9.02534H2.44163ZM33.6163 20.1042C33.6163 23.0647 32.7312 26.1473 30.8694 28.1616C29.0992 30.1149 26.505 30.9695 23.8497 30.9695H16.5859V8.99482L23.9108 9.02534C26.6881 9.02534 29.1908 9.97148 30.9 11.8943C32.9143 14.0917 33.6163 17.0217 33.6163 20.1042ZM31.2357 20.1042C31.2662 17.6016 30.7168 15.0989 29.2213 13.3898C27.8784 11.8637 26.0167 11.2228 23.8803 11.1923L18.9055 11.2228V28.772L23.8497 28.8331C25.9862 28.8025 27.9395 28.07 29.2824 26.544C30.7168 24.9264 31.2052 22.3627 31.2357 20.1042ZM57.9181 11.1618V9.02534H44.3976V31H57.9181V28.8636H46.6256V21.0809H56.0869V18.9445H46.6256V11.1618H57.9181Z" fill="white"/>
<path d="M83.7862 31.1141H86.1363L78.5672 9.1394H75.5763L68.0072 31.1141H70.3573L81.0413 23.1844L80.621 21.9748L71.105 28.9471L71.8528 26.7802H82.2907L83.7862 31.1141ZM71.8528 26.7802L77.0412 11.6726L82.2907 26.7802H71.8528Z" fill="white"/>
<path d="M70.3573 31.1141H68.0073L75.5763 9.1394H78.5673L86.1364 31.1141H83.7863L73.1023 23.1844L73.5226 21.9748L83.0385 28.9471L82.2908 26.7802H71.8528L70.3573 31.1141ZM82.2908 26.7802L77.1023 11.6726L73.7137 20.792H80.4338L80.6404 21.9748H73.5226L71.8528 26.7802H82.2908Z" fill="white"/>
</svg>
