
<svg width="64" height="591" viewBox="0 0 64 591" fill="none" xmlns="http://www.w3.org/2000/svg">
<g id="bg-mobile">
<g id="Group 6.1" opacity="0.4">
<g id="X">
<rect id="Rectangle" width="64" height="64" transform="matrix(1 0 0 -1 0 65)" stroke="#BDE4B6"/>
<path id="Line" d="M64.0001 65L5.49089e-05 1.00005" stroke="#BDE4B6" stroke-linecap="round"/>
<path id="Line_2" d="M0 65L64 1" stroke="#BDE4B6" stroke-linecap="round"/>
</g>
<g id="X_2">
<rect id="Rectangle_2" width="64" height="64" transform="matrix(1 0 0 -1 0 129)" stroke="#8ED1BB"/>
<path id="Line_3" d="M64.0001 129L5.49089e-05 65.0001" stroke="#8ED1BB" stroke-linecap="round"/>
<path id="Line_4" d="M0 129L64 65" stroke="#8ED1BB" stroke-linecap="round"/>
</g>
</g>
<g id="mesh" opacity="0.3">
<g id="X_3">
<rect id="Rectangle_3" width="64" height="64" transform="matrix(1 0 0 -1 0 526)" stroke="#508AB2"/>
<path id="Line_5" d="M64.0001 526L5.49089e-05 462" stroke="#508AB2" stroke-linecap="round"/>
<path id="Line_6" d="M0 526L64 462" stroke="#508AB2" stroke-linecap="round"/>
</g>
<g id="X_4">
<rect id="Rectangle_4" width="64" height="64" transform="matrix(1 0 0 -1 0 590)" stroke="#5181AE"/>
<path id="Line_7" d="M64.0001 590L5.49089e-05 526" stroke="#5181AE" stroke-linecap="round"/>
<path id="Line_8" d="M0 590L64 526" stroke="#5181AE" stroke-linecap="round"/>
</g>
</g>
</g>
</svg>
