<svg xmlns="http://www.w3.org/2000/svg" width="64" height="666" viewBox="0 0 64 666" fill="none">
<g id="Frame 2" clip-path="url(#clip0)">
<rect width="64" height="666" fill="white"/>
<g id="bg">
<g id="Group 4" opacity="0.5">
<g id="X">
<rect id="Rectangle" width="64" height="64" transform="matrix(1 0 0 -1 0 66)" stroke="#BDE4B6"/>
<path id="Line" d="M64.0001 66L5.49089e-05 2.00005" stroke="#BDE4B6" stroke-linecap="round"/>
<path id="Line_2" d="M0 66L64 2" stroke="#BDE4B6" stroke-linecap="round"/>
</g>
</g>
<g id="Group 4.1" opacity="0.5">
<g id="X_2">
<rect id="Rectangle_2" width="64" height="64" transform="matrix(1 0 0 -1 0 130)" stroke="#8ED1BB"/>
<path id="Line_3" d="M64.0001 130L5.49089e-05 66.0001" stroke="#8ED1BB" stroke-linecap="round"/>
<path id="Line_4" d="M0 130L64 66" stroke="#8ED1BB" stroke-linecap="round"/>
</g>
</g>
<g id="Group 4.2" opacity="0.5">
<g id="X_3">
<rect id="Rectangle_3" width="64" height="64" transform="matrix(1 0 0 -1 0 194)" stroke="#84CCBD"/>
<path id="Line_5" d="M64.0001 194L5.49089e-05 130" stroke="#84CCBD" stroke-linecap="round"/>
<path id="Line_6" d="M0 194L64 130" stroke="#84CCBD" stroke-linecap="round"/>
</g>
</g>
<g id="Group 4.3" opacity="0.5">
<g id="X_4">
<rect id="Rectangle_4" width="64" height="64" transform="matrix(1 0 0 -1 0 258)" stroke="#74C6BE"/>
<path id="Line_7" d="M64.0001 258L5.49089e-05 194" stroke="#74C6BE" stroke-linecap="round"/>
<path id="Line_8" d="M0 258L64 194" stroke="#74C6BE" stroke-linecap="round"/>
</g>
</g>
<g id="Group 4.6" opacity="0.5">
<g id="X_5">
<rect id="Rectangle_5" width="64" height="64" transform="matrix(1 0 0 -1 0 474)" stroke="#54B5C1"/>
<path id="Line_9" d="M64.0001 474L5.49089e-05 410" stroke="#54B5C1" stroke-linecap="round"/>
<path id="Line_10" d="M0 474L64 410" stroke="#54B5C1" stroke-linecap="round"/>
</g>
</g>
<g id="Group 4.7" opacity="0.4">
<g id="X_6">
<rect id="Rectangle_6" width="64" height="64" transform="matrix(1 0 0 -1 0 538)" stroke="#44AAC0"/>
<path id="Line_11" d="M64.0001 538L5.49089e-05 474" stroke="#44AAC0" stroke-linecap="round"/>
<path id="Line_12" d="M0 538L64 474" stroke="#44AAC0" stroke-linecap="round"/>
</g>
</g>
<g id="Group 4.8" opacity="0.3">
<g id="X_7">
<rect id="Rectangle_7" width="64" height="64" transform="matrix(1 0 0 -1 0 602)" stroke="#508AB2"/>
<path id="Line_13" d="M64.0001 602L5.49089e-05 538" stroke="#508AB2" stroke-linecap="round"/>
<path id="Line_14" d="M0 602L64 538" stroke="#508AB2" stroke-linecap="round"/>
</g>
</g>
<g id="Group 4.9" opacity="0.2">
<g id="X_8">
<rect id="Rectangle_8" width="64" height="64" transform="matrix(1 0 0 -1 0 666)" stroke="#5181AE"/>
<path id="Line_15" d="M64.0001 666L5.49089e-05 602" stroke="#5181AE" stroke-linecap="round"/>
<path id="Line_16" d="M0 666L64 602" stroke="#5181AE" stroke-linecap="round"/>
</g>
</g>
</g>
</g>
<defs>
<clipPath id="clip0">
<rect width="64" height="666" fill="white"/>
</clipPath>
</defs>
</svg>