<svg width="259" height="121" viewBox="0 0 259 121" fill="none" xmlns="http://www.w3.org/2000/svg">
<path d="M7.32722 27.055V93H14.0133V27.055H7.32722ZM100.881 60.3023C100.881 69.1865 98.2249 78.4371 92.6378 84.4821C87.3256 90.3439 79.5404 92.9084 71.5721 92.9084H49.7736V26.9634L71.7553 27.055C80.09 27.055 87.6004 29.8943 92.7294 35.6645C98.7744 42.259 100.881 51.0517 100.881 60.3023ZM93.7369 60.3023C93.8285 52.7919 92.1799 45.2815 87.692 40.1524C83.662 35.5729 78.075 33.6495 71.6637 33.5579L56.7345 33.6495V86.3139L71.5721 86.4971C77.9834 86.4055 83.8452 84.2073 87.8752 79.6278C92.1799 74.7735 93.6453 67.08 93.7369 60.3023ZM173.81 33.4663V27.055H133.235V93H173.81V86.5887H139.921V63.2332H168.314V56.8218H139.921V33.4663H173.81Z" fill="white"/>
<path d="M251.439 93.3718H258.492L235.777 27.4268H226.801L204.087 93.3718H211.139L243.202 69.5751L241.94 65.9451L213.383 86.8689L215.627 80.3659H246.951L251.439 93.3718ZM215.627 80.3659L231.198 35.0288L246.951 80.3659H215.627Z" fill="white"/>
<path d="M211.14 93.3718H204.087L226.801 27.4268H235.777L258.492 93.3718H251.439L219.377 69.5751L220.638 65.9451L249.195 86.8689L246.951 80.3659H215.627L211.14 93.3718ZM246.951 80.3659L231.381 35.0288L221.212 62.3958H241.379L241.999 65.9451H220.638L215.627 80.3659H246.951Z" fill="white"/>
</svg>
