<svg width="72" height="72" viewBox="0 0 72 72" fill="none" xmlns="http://www.w3.org/2000/svg">
<rect opacity="0.2" x="8" y="8" width="64" height="64" fill="#44AAC0"/>
<rect width="64" height="64" fill="#44AAC0"/>
<path d="M13.1875 13.0625H50.8125V50.6875H13.1875V13.0625ZM44.4297 21.9648V21.5449H37.459L32.5039 33.9746L26.793 21.5449H19.4863V21.9648L21.8379 24.8203C22.0898 25.0723 22.1738 25.3242 22.1738 25.6602V36.8301C22.1738 37.25 22.0898 37.5859 21.8379 37.9219L19.1504 41.1133V41.5332H26.709V41.1133L24.0215 37.9219C23.6855 37.5859 23.6016 37.25 23.6855 36.8301V27.1719L30.3203 41.5332H31.0762L36.7031 27.1719V38.6777C36.7031 38.9297 36.6191 39.0977 36.5352 39.1816L34.5195 41.1973V41.6172H44.4297V41.1973L42.4141 39.2656C42.2461 39.0977 42.1621 38.9297 42.1621 38.6777V24.4844C42.1621 24.3164 42.2461 24.0645 42.4141 23.8965L44.4297 21.9648Z" fill="white"/>
</svg>
