<svg width="270" height="79" viewBox="0 0 270 79" fill="none" xmlns="http://www.w3.org/2000/svg">
<g id="Vector">
<path d="M0.455811 9.50187V76.5045H7.24913V9.50187H0.455811Z" fill="white"/>
<path d="M187.543 16.016V9.50187H146.318V76.5045H187.543V69.9903H153.111V46.2602H181.959V39.7461H153.111V16.016H187.543Z" fill="white"/>
<path d="M261.901 76.5045H269.067L245.988 9.50187H236.868L213.79 76.5045H220.955L225.515 63.2901H257.341L261.901 76.5045ZM227.749 56.869L241.335 17.2258L255.108 56.869H227.749Z" fill="white"/>
<path d="M80.9201 5.2831C80.9201 7.99903 78.7184 10.2007 76.0025 10.2007C73.2865 10.2007 71.0848 7.99903 71.0848 5.2831C71.0848 2.56717 73.2865 0.365479 76.0025 0.365479C78.7184 0.365478 80.9201 2.56717 80.9201 5.2831Z" fill="white"/>
<path d="M39.2594 61.5488L67.069 13.3811L72.7396 16.6551L44.93 64.8227L39.2594 61.5488Z" fill="white"/>
<path d="M112.745 61.5487L84.9356 13.381L79.265 16.655L107.075 64.8227L112.745 61.5487Z" fill="white"/>
<path d="M48.1371 76.5816H103.861V70.0338H48.1371V76.5816Z" fill="white"/>
<path d="M41.5721 73.3102C41.5721 76.0261 39.3704 78.2278 36.6545 78.2278C33.9386 78.2278 31.7369 76.0261 31.7369 73.3102C31.7369 70.5943 33.9386 68.3926 36.6545 68.3926C39.3704 68.3926 41.5721 70.5943 41.5721 73.3102Z" fill="white"/>
<path d="M120.261 73.3101C120.261 76.0261 118.059 78.2277 115.344 78.2277C112.628 78.2277 110.426 76.0261 110.426 73.3101C110.426 70.5942 112.628 68.3925 115.344 68.3925C118.059 68.3925 120.261 70.5942 120.261 73.3101Z" fill="white"/>
</g>
</svg>
