<svg width="72" height="72" viewBox="0 0 72 72" fill="none" xmlns="http://www.w3.org/2000/svg">
<rect opacity="0.2" x="8" y="8" width="64" height="64" fill="#74C6BE"/>
<rect width="64" height="64" fill="#74C6BE"/>
<path d="M32 11.0469C35.6953 11.0469 39.2227 12.0547 42.4141 13.9023C45.6055 15.75 48.125 18.2695 49.9727 21.4609C51.8203 24.6523 52.8281 28.1797 52.8281 31.875C52.8281 35.6543 51.8203 39.0977 49.9727 42.2891C48.125 45.4805 45.6055 48.084 42.4141 49.9316C39.2227 51.7793 35.6953 52.7031 32 52.7031C28.2207 52.7031 24.7773 51.7793 21.5859 49.9316C18.3945 48.084 15.791 45.4805 13.9434 42.2891C12.0957 39.0977 11.1719 35.6543 11.1719 31.875C11.1719 28.1797 12.0957 24.6523 13.9434 21.4609C15.791 18.2695 18.3945 15.75 21.5859 13.9023C24.7773 12.0547 28.2207 11.0469 32 11.0469ZM42.2461 25.3242C42.3301 24.6523 42.2461 24.2324 41.9102 23.8965C41.5742 23.5605 41.2383 23.4766 40.8184 23.6445L20.7461 31.4551C19.9902 31.707 19.5703 31.959 19.5703 32.2949C19.5703 32.6309 19.8223 32.8828 20.4941 33.0508L25.6172 34.6465L37.543 27.1719C37.7949 27.0039 38.0469 27.0039 38.2148 27.0039C38.3828 27.0879 38.3828 27.1719 38.2148 27.3398L28.5566 36.0742L28.1367 41.3652C28.4727 41.3652 28.8926 41.1973 29.2285 40.8613L31.748 38.4258L36.9551 42.2891C37.9629 42.877 38.5508 42.625 38.8027 41.4492L42.2461 25.3242Z" fill="white"/>
</svg>
