<svg width="375" height="590" viewBox="0 0 375 590" fill="none" xmlns="http://www.w3.org/2000/svg">
<g opacity="0.3">
<rect width="64" height="64" transform="matrix(1 0 0 -1 -48 525)" stroke="#508AB2"/>
<line x1="15.6464" y1="525.354" x2="-48.3535" y2="461.354" stroke="#508AB2"/>
<line y1="-0.5" x2="90.5097" y2="-0.5" transform="matrix(0.707107 -0.707107 -0.707107 -0.707107 -48 525)" stroke="#508AB2"/>
<rect width="64" height="64" transform="matrix(1 0 0 -1 16 525)" stroke="#508AB2"/>
<line x1="79.6464" y1="525.354" x2="15.6464" y2="461.354" stroke="#508AB2"/>
<line y1="-0.5" x2="90.5097" y2="-0.5" transform="matrix(0.707107 -0.707107 -0.707107 -0.707107 16 525)" stroke="#508AB2"/>
<rect width="64" height="64" transform="matrix(1 0 0 -1 80 525)" stroke="#508AB2"/>
<line x1="143.646" y1="525.354" x2="79.6464" y2="461.354" stroke="#508AB2"/>
<line y1="-0.5" x2="90.5097" y2="-0.5" transform="matrix(0.707107 -0.707107 -0.707107 -0.707107 80 525)" stroke="#508AB2"/>
<rect width="64" height="64" transform="matrix(1 0 0 -1 144 525)" stroke="#508AB2"/>
<line x1="207.646" y1="525.354" x2="143.646" y2="461.354" stroke="#508AB2"/>
<line y1="-0.5" x2="90.5097" y2="-0.5" transform="matrix(0.707107 -0.707107 -0.707107 -0.707107 144 525)" stroke="#508AB2"/>
<rect width="64" height="64" transform="matrix(1 0 0 -1 208 525)" stroke="#508AB2"/>
<line x1="271.646" y1="525.354" x2="207.646" y2="461.354" stroke="#508AB2"/>
<line y1="-0.5" x2="90.5097" y2="-0.5" transform="matrix(0.707107 -0.707107 -0.707107 -0.707107 208 525)" stroke="#508AB2"/>
<rect width="64" height="64" transform="matrix(1 0 0 -1 272 525)" stroke="#508AB2"/>
<line x1="335.646" y1="525.354" x2="271.646" y2="461.354" stroke="#508AB2"/>
<line y1="-0.5" x2="90.5097" y2="-0.5" transform="matrix(0.707107 -0.707107 -0.707107 -0.707107 272 525)" stroke="#508AB2"/>
<rect width="64" height="64" transform="matrix(1 0 0 -1 336 525)" stroke="#508AB2"/>
<line x1="399.646" y1="525.354" x2="335.646" y2="461.354" stroke="#508AB2"/>
<line y1="-0.5" x2="90.5097" y2="-0.5" transform="matrix(0.707107 -0.707107 -0.707107 -0.707107 336 525)" stroke="#508AB2"/>
<rect width="64" height="64" transform="matrix(1 0 0 -1 -48 589)" stroke="#5181AE"/>
<line x1="15.6464" y1="589.354" x2="-48.3535" y2="525.354" stroke="#5181AE"/>
<line y1="-0.5" x2="90.5097" y2="-0.5" transform="matrix(0.707107 -0.707107 -0.707107 -0.707107 -48 589)" stroke="#5181AE"/>
<rect width="64" height="64" transform="matrix(1 0 0 -1 16 589)" stroke="#5181AE"/>
<line x1="79.6464" y1="589.354" x2="15.6464" y2="525.354" stroke="#5181AE"/>
<line y1="-0.5" x2="90.5097" y2="-0.5" transform="matrix(0.707107 -0.707107 -0.707107 -0.707107 16 589)" stroke="#5181AE"/>
<rect width="64" height="64" transform="matrix(1 0 0 -1 80 589)" stroke="#5181AE"/>
<line x1="143.646" y1="589.354" x2="79.6464" y2="525.354" stroke="#5181AE"/>
<line y1="-0.5" x2="90.5097" y2="-0.5" transform="matrix(0.707107 -0.707107 -0.707107 -0.707107 80 589)" stroke="#5181AE"/>
<rect width="64" height="64" transform="matrix(1 0 0 -1 144 589)" stroke="#5181AE"/>
<line x1="207.646" y1="589.354" x2="143.646" y2="525.354" stroke="#5181AE"/>
<line y1="-0.5" x2="90.5097" y2="-0.5" transform="matrix(0.707107 -0.707107 -0.707107 -0.707107 144 589)" stroke="#5181AE"/>
<rect width="64" height="64" transform="matrix(1 0 0 -1 208 589)" stroke="#5181AE"/>
<line x1="271.646" y1="589.354" x2="207.646" y2="525.354" stroke="#5181AE"/>
<line y1="-0.5" x2="90.5097" y2="-0.5" transform="matrix(0.707107 -0.707107 -0.707107 -0.707107 208 589)" stroke="#5181AE"/>
<rect width="64" height="64" transform="matrix(1 0 0 -1 272 589)" stroke="#5181AE"/>
<line x1="335.646" y1="589.354" x2="271.646" y2="525.354" stroke="#5181AE"/>
<line y1="-0.5" x2="90.5097" y2="-0.5" transform="matrix(0.707107 -0.707107 -0.707107 -0.707107 272 589)" stroke="#5181AE"/>
<rect width="64" height="64" transform="matrix(1 0 0 -1 336 589)" stroke="#5181AE"/>
<line x1="399.646" y1="589.354" x2="335.646" y2="525.354" stroke="#5181AE"/>
<line y1="-0.5" x2="90.5097" y2="-0.5" transform="matrix(0.707107 -0.707107 -0.707107 -0.707107 336 589)" stroke="#5181AE"/>
</g>
<g opacity="0.4">
<rect width="64" height="64" transform="matrix(1 0 0 -1 -48 64)" stroke="#BDE4B6"/>
<line x1="15.6464" y1="64.3536" x2="-48.3535" y2="0.353556" stroke="#BDE4B6"/>
<line y1="-0.5" x2="90.5097" y2="-0.5" transform="matrix(0.707107 -0.707107 -0.707107 -0.707107 -48 64)" stroke="#BDE4B6"/>
<rect width="64" height="64" transform="matrix(1 0 0 -1 16 64)" stroke="#BDE4B6"/>
<line x1="79.6464" y1="64.3536" x2="15.6464" y2="0.353556" stroke="#BDE4B6"/>
<line y1="-0.5" x2="90.5097" y2="-0.5" transform="matrix(0.707107 -0.707107 -0.707107 -0.707107 16 64)" stroke="#BDE4B6"/>
<rect width="64" height="64" transform="matrix(1 0 0 -1 80 64)" stroke="#BDE4B6"/>
<line x1="143.646" y1="64.3536" x2="79.6464" y2="0.353556" stroke="#BDE4B6"/>
<line y1="-0.5" x2="90.5097" y2="-0.5" transform="matrix(0.707107 -0.707107 -0.707107 -0.707107 80 64)" stroke="#BDE4B6"/>
<rect width="64" height="64" transform="matrix(1 0 0 -1 144 64)" stroke="#BDE4B6"/>
<line x1="207.646" y1="64.3536" x2="143.646" y2="0.353556" stroke="#BDE4B6"/>
<line y1="-0.5" x2="90.5097" y2="-0.5" transform="matrix(0.707107 -0.707107 -0.707107 -0.707107 144 64)" stroke="#BDE4B6"/>
<rect width="64" height="64" transform="matrix(1 0 0 -1 208 64)" stroke="#BDE4B6"/>
<line x1="271.646" y1="64.3536" x2="207.646" y2="0.353556" stroke="#BDE4B6"/>
<line y1="-0.5" x2="90.5097" y2="-0.5" transform="matrix(0.707107 -0.707107 -0.707107 -0.707107 208 64)" stroke="#BDE4B6"/>
<rect width="64" height="64" transform="matrix(1 0 0 -1 272 64)" stroke="#BDE4B6"/>
<line x1="335.646" y1="64.3536" x2="271.646" y2="0.353556" stroke="#BDE4B6"/>
<line y1="-0.5" x2="90.5097" y2="-0.5" transform="matrix(0.707107 -0.707107 -0.707107 -0.707107 272 64)" stroke="#BDE4B6"/>
<rect width="64" height="64" transform="matrix(1 0 0 -1 336 64)" stroke="#BDE4B6"/>
<line x1="399.646" y1="64.3536" x2="335.646" y2="0.353556" stroke="#BDE4B6"/>
<line y1="-0.5" x2="90.5097" y2="-0.5" transform="matrix(0.707107 -0.707107 -0.707107 -0.707107 336 64)" stroke="#BDE4B6"/>
<rect width="64" height="64" transform="matrix(1 0 0 -1 -48 128)" stroke="#8ED1BB"/>
<line x1="15.6464" y1="128.354" x2="-48.3535" y2="64.3536" stroke="#8ED1BB"/>
<line y1="-0.5" x2="90.5097" y2="-0.5" transform="matrix(0.707107 -0.707107 -0.707107 -0.707107 -48 128)" stroke="#8ED1BB"/>
<rect width="64" height="64" transform="matrix(1 0 0 -1 16 128)" stroke="#8ED1BB"/>
<line x1="79.6464" y1="128.354" x2="15.6464" y2="64.3536" stroke="#8ED1BB"/>
<line y1="-0.5" x2="90.5097" y2="-0.5" transform="matrix(0.707107 -0.707107 -0.707107 -0.707107 16 128)" stroke="#8ED1BB"/>
<rect width="64" height="64" transform="matrix(1 0 0 -1 80 128)" stroke="#8ED1BB"/>
<line x1="143.646" y1="128.354" x2="79.6464" y2="64.3536" stroke="#8ED1BB"/>
<line y1="-0.5" x2="90.5097" y2="-0.5" transform="matrix(0.707107 -0.707107 -0.707107 -0.707107 80 128)" stroke="#8ED1BB"/>
<rect width="64" height="64" transform="matrix(1 0 0 -1 144 128)" stroke="#8ED1BB"/>
<line x1="207.646" y1="128.354" x2="143.646" y2="64.3536" stroke="#8ED1BB"/>
<line y1="-0.5" x2="90.5097" y2="-0.5" transform="matrix(0.707107 -0.707107 -0.707107 -0.707107 144 128)" stroke="#8ED1BB"/>
<rect width="64" height="64" transform="matrix(1 0 0 -1 208 128)" stroke="#8ED1BB"/>
<line x1="271.646" y1="128.354" x2="207.646" y2="64.3536" stroke="#8ED1BB"/>
<line y1="-0.5" x2="90.5097" y2="-0.5" transform="matrix(0.707107 -0.707107 -0.707107 -0.707107 208 128)" stroke="#8ED1BB"/>
<rect width="64" height="64" transform="matrix(1 0 0 -1 272 128)" stroke="#8ED1BB"/>
<line x1="335.646" y1="128.354" x2="271.646" y2="64.3536" stroke="#8ED1BB"/>
<line y1="-0.5" x2="90.5097" y2="-0.5" transform="matrix(0.707107 -0.707107 -0.707107 -0.707107 272 128)" stroke="#8ED1BB"/>
<rect width="64" height="64" transform="matrix(1 0 0 -1 336 128)" stroke="#8ED1BB"/>
<line x1="399.646" y1="128.354" x2="335.646" y2="64.3536" stroke="#8ED1BB"/>
<line y1="-0.5" x2="90.5097" y2="-0.5" transform="matrix(0.707107 -0.707107 -0.707107 -0.707107 336 128)" stroke="#8ED1BB"/>
</g>
</svg>
