<svg width="64" height="666" viewBox="0 0 64 666" fill="none" xmlns="http://www.w3.org/2000/svg">
<rect width="64" height="64" transform="matrix(1 0 0 -1 1 65)" stroke="#BDE4B6"/>
<line x1="64.6464" y1="65.3536" x2="0.646449" y2="1.35356" stroke="#BDE4B6"/>
<line y1="-0.5" x2="90.5097" y2="-0.5" transform="matrix(0.707107 -0.707107 -0.707107 -0.707107 1 65)" stroke="#BDE4B6"/>
<rect width="64" height="64" transform="matrix(1 0 0 -1 1 129)" stroke="#8ED1BB"/>
<line x1="64.6464" y1="129.354" x2="0.646449" y2="65.3536" stroke="#8ED1BB"/>
<line y1="-0.5" x2="90.5097" y2="-0.5" transform="matrix(0.707107 -0.707107 -0.707107 -0.707107 1 129)" stroke="#8ED1BB"/>
<rect width="64" height="64" transform="matrix(1 0 0 -1 1 193)" stroke="#84CCBD"/>
<line x1="64.6464" y1="193.354" x2="0.646449" y2="129.354" stroke="#84CCBD"/>
<line y1="-0.5" x2="90.5097" y2="-0.5" transform="matrix(0.707107 -0.707107 -0.707107 -0.707107 1 193)" stroke="#84CCBD"/>
<rect width="64" height="64" transform="matrix(1 0 0 -1 1 257)" stroke="#74C6BE"/>
<line x1="64.6464" y1="257.354" x2="0.646449" y2="193.354" stroke="#74C6BE"/>
<line y1="-0.5" x2="90.5097" y2="-0.5" transform="matrix(0.707107 -0.707107 -0.707107 -0.707107 1 257)" stroke="#74C6BE"/>
<rect width="64" height="64" transform="matrix(1 0 0 -1 1 473)" stroke="#54B5C1"/>
<line x1="64.6464" y1="473.354" x2="0.646449" y2="409.354" stroke="#54B5C1"/>
<line y1="-0.5" x2="90.5097" y2="-0.5" transform="matrix(0.707107 -0.707107 -0.707107 -0.707107 1 473)" stroke="#54B5C1"/>
<rect width="64" height="64" transform="matrix(1 0 0 -1 1 537)" stroke="#44AAC0"/>
<line x1="64.6464" y1="537.354" x2="0.646449" y2="473.354" stroke="#44AAC0"/>
<line y1="-0.5" x2="90.5097" y2="-0.5" transform="matrix(0.707107 -0.707107 -0.707107 -0.707107 1 537)" stroke="#44AAC0"/>
<rect width="64" height="64" transform="matrix(1 0 0 -1 1 601)" stroke="#508AB2"/>
<line x1="64.6464" y1="601.354" x2="0.646449" y2="537.354" stroke="#508AB2"/>
<line y1="-0.5" x2="90.5097" y2="-0.5" transform="matrix(0.707107 -0.707107 -0.707107 -0.707107 1 601)" stroke="#508AB2"/>
<rect width="64" height="64" transform="matrix(1 0 0 -1 1 665)" stroke="#5181AE"/>
<line x1="64.6464" y1="665.354" x2="0.646449" y2="601.354" stroke="#5181AE"/>
<line y1="-0.5" x2="90.5097" y2="-0.5" transform="matrix(0.707107 -0.707107 -0.707107 -0.707107 1 665)" stroke="#5181AE"/>
</svg>
